<svg width="197" height="190" viewBox="0 0 197 190" fill="none" xmlns="http://www.w3.org/2000/svg">
<path fill-rule="evenodd" clip-rule="evenodd" d="M117.303 0.178995C116.628 0.884401 116.782 2.99675 117.539 3.40183C117.75 3.51484 117.857 3.44328 118.053 3.06057C118.181 2.80923 118.245 2.38809 118.356 1.05788C118.413 0.378976 118.378 0.269313 118.042 0.0956997C117.75 -0.0554823 117.501 -0.0274131 117.303 0.178995ZM129.412 5.94988C129.219 6.33699 129.255 7.12209 129.513 8.1963C129.63 8.68329 129.738 9.12024 129.753 9.16734C129.801 9.31957 130.096 9.04246 130.281 8.67044C130.444 8.34433 130.452 8.28484 130.42 7.62102C130.401 7.23398 130.32 6.64427 130.239 6.31062L130.092 5.70393H129.813C129.556 5.70393 129.524 5.72334 129.412 5.94988ZM99.7714 12.1152C99.516 12.4968 99.7309 13.2361 100.178 13.5122C100.291 13.5826 100.403 13.6402 100.426 13.6402C100.479 13.6402 100.48 12.7354 100.427 12.4687C100.384 12.2539 100.113 11.9349 99.9742 11.9349C99.9291 11.9349 99.8379 12.016 99.7714 12.1152ZM128.343 14.9477C127.808 15.4829 127.818 16.0112 128.402 17.9034C128.593 18.5217 128.687 18.9595 128.713 19.3542C128.747 19.8677 128.762 19.9166 128.874 19.8872C128.943 19.8692 129.053 19.9036 129.119 19.9634C129.234 20.0677 129.242 20.0486 129.312 19.4961C129.618 17.0818 129.531 15.704 129.024 14.9355C128.816 14.6201 128.668 14.6227 128.343 14.9477ZM108.014 15.8313C108.005 15.9358 108.284 17.3446 108.32 17.3787C108.392 17.4464 108.269 16.608 108.146 16.1981C108.076 15.9636 108.017 15.7986 108.014 15.8313ZM125.515 18.3791C125.098 18.6604 124.92 19.1789 124.799 20.4614C124.759 20.8762 124.711 21.2702 124.69 21.3369C124.66 21.4369 124.678 21.4503 124.795 21.413C124.889 21.3832 124.98 21.4064 125.063 21.481C125.182 21.5885 125.19 21.588 125.229 21.4705C125.252 21.4025 125.429 21.0074 125.622 20.5926C126.13 19.5012 126.248 18.9892 126.105 18.4773C126.023 18.1813 125.851 18.1527 125.515 18.3791ZM145.56 19.561C145.466 19.6839 145.356 19.8805 145.315 19.998C145.269 20.1299 145.223 20.1824 145.193 20.1351C145.088 19.9653 144.288 21.0388 143.988 21.7522C143.687 22.4681 143.606 23.6899 143.854 23.7849C144.065 23.866 144.636 23.5917 144.975 23.2466C145.418 22.7946 145.586 22.2916 145.586 21.4137C145.586 20.6659 145.541 20.4262 145.389 20.3536C145.28 20.3021 145.292 20.2594 145.528 19.8456C145.811 19.35 145.827 19.2111 145.56 19.561ZM122.963 20.3286C122.785 20.5063 122.738 20.7401 122.826 21.0075C122.916 21.2811 123.106 21.4646 123.268 21.4344C123.552 21.3813 123.738 20.5259 123.514 20.3021C123.372 20.1607 123.118 20.1728 122.963 20.3286ZM99.593 23.6534C99.4102 23.8361 99.7518 24.2874 100.073 24.2874C100.385 24.2874 100.48 24.1309 100.344 23.8406C100.246 23.6311 100.215 23.6138 99.9373 23.6118C99.772 23.6106 99.617 23.6293 99.593 23.6534ZM150.82 25.8208C150.567 26.1115 150.492 26.4807 150.66 26.6196C150.794 26.7307 151.284 26.012 151.183 25.8521C151.085 25.696 150.94 25.6836 150.82 25.8208ZM41.6853 26.7673C41.52 26.8306 41.5029 26.8626 41.5384 27.0443C41.649 27.6121 42.3185 28.1047 43.2331 28.2913L43.6758 28.3816V28.1961C43.6758 28.0911 43.7232 27.984 43.7853 27.9493C43.8821 27.8951 43.867 27.8501 43.6546 27.5609C43.5226 27.381 43.2503 27.1206 43.0495 26.9823C42.7362 26.7665 42.6268 26.7283 42.2784 26.7133C42.055 26.7037 41.7882 26.7279 41.6853 26.7673ZM100.797 30.8769C100.795 31.1001 100.988 31.4449 101.07 31.3633C101.151 31.2821 101.098 31.1088 100.927 30.89L100.798 30.726L100.797 30.8769ZM57.7108 36.23C57.8809 36.4499 59.1079 37.5317 59.6814 37.9673C59.9857 38.1984 60.1755 38.3282 60.1034 38.2559C59.9725 38.1244 57.99 36.4038 57.7436 36.2078C57.6201 36.1094 57.6184 36.1105 57.7108 36.23ZM142.996 37.8985C142.563 38.2896 142.152 38.6734 142.083 38.7515C141.958 38.8931 141.958 38.894 142.227 39.124C142.813 39.6261 143.347 40.6632 143.525 41.6465C143.655 42.3674 143.638 42.8434 143.454 43.602C143.27 44.3633 143.245 44.9534 143.384 45.2859C143.436 45.4093 143.61 45.7275 143.771 45.993C144.117 46.5625 144.21 46.8203 144.513 48.0408C144.838 49.3468 144.998 49.6737 145.422 49.8963C145.646 50.0143 146.413 50.0296 146.617 49.9202C146.733 49.8584 146.92 50.0945 148.543 52.3505C149.531 53.7248 150.365 54.8913 150.396 54.9427C150.431 55.0035 150.413 55.0636 150.344 55.1144C150.246 55.186 150.245 55.2168 150.34 55.4846C150.57 56.1359 151.056 56.757 151.75 57.2859C151.949 57.437 152.571 57.8563 153.133 58.2177L154.156 58.8748L154.326 58.7285C154.419 58.6481 154.533 58.5698 154.579 58.5545C154.712 58.5104 154.484 57.9975 154.17 57.6314C153.862 57.2727 153.416 56.9582 152.57 56.5034C151.506 55.9311 151.017 55.5436 150.708 55.0266C150.632 54.9004 150.57 54.834 150.57 54.8791C150.57 55.0489 150.447 54.9525 150.404 54.7479C150.331 54.4028 149.787 53.0615 149.534 52.5999C148.835 51.3264 148 50.42 146.999 49.847C146.709 49.6809 146.638 49.61 146.669 49.5142C146.695 49.4312 146.617 49.2815 146.424 49.0438C146.056 48.5924 145.577 47.6618 145.324 46.9062C144.726 45.1212 144.451 42.8874 144.363 39.105L144.319 37.1865L144.051 37.187C143.802 37.1876 143.725 37.2392 142.996 37.8985ZM152.76 37.8362C152.612 37.9033 152.428 38.0469 152.351 38.1552C152.231 38.3244 151.947 38.9144 151.947 38.9956C151.947 39.0107 152.058 39.0223 152.193 39.0215C152.49 39.0198 152.911 38.8354 153.109 38.6198C153.251 38.4657 153.455 37.9819 153.455 37.8013C153.455 37.6709 153.083 37.6896 152.76 37.8362ZM0.114764 38.4567C0.0388229 38.5155 0 38.6358 0 38.8125C0 39.0712 0.0158046 39.0906 0.508239 39.4355C2.16274 40.5946 4.34987 41.6659 7.5622 42.8908C8.13261 43.1083 8.60937 43.2863 8.6217 43.2863C8.63409 43.2863 8.62852 43.2262 8.60931 43.1529C8.58924 43.0762 8.62229 42.9668 8.68702 42.8951C8.79496 42.7759 8.7886 42.7638 8.53376 42.6029C7.10787 41.7026 3.99679 40.059 1.588 38.9331C0.376099 38.3668 0.273728 38.3337 0.114764 38.4567ZM60.7264 38.7787C60.7264 38.8024 62.2999 40.1882 62.8238 40.6259C62.9513 40.7325 62.8932 40.6497 62.6937 40.4406C62.3737 40.1053 60.7264 38.7137 60.7264 38.7787ZM129.652 39.3466C129.508 39.6161 129.629 40.0724 129.845 40.0724C129.902 40.0724 129.961 39.5154 129.924 39.3275C129.895 39.1804 129.735 39.1916 129.652 39.3466ZM121.892 40.384C121.756 40.8079 121.647 41.2082 121.648 41.2737C121.652 41.56 121.963 41.9048 122.218 41.9075C122.58 41.9111 122.691 40.5598 122.38 39.9248C122.297 39.7535 122.208 39.6133 122.183 39.6133C122.158 39.6133 122.027 39.9601 121.892 40.384ZM92.5125 40.1216C92.5654 40.2676 92.729 40.5115 92.729 40.4445C92.729 40.3754 92.536 40.0068 92.4999 40.0068C92.4839 40.0068 92.4895 40.0584 92.5125 40.1216ZM75.5473 40.2284C75.5473 40.242 75.5989 40.2936 75.662 40.3432C75.766 40.4247 75.7683 40.4224 75.6868 40.3184C75.6011 40.2091 75.5473 40.1744 75.5473 40.2284ZM75.7905 40.5479C76.5898 41.5953 77.4159 42.6411 77.4967 42.708C77.5542 42.7554 77.1952 42.2705 76.699 41.6301C76.2028 40.9898 75.7813 40.4659 75.7624 40.4659C75.7434 40.4659 75.7561 40.5029 75.7905 40.5479ZM92.9258 40.9251C93.035 41.1415 93.1392 41.3186 93.1572 41.3186C93.1752 41.3186 93.1006 41.1415 92.9913 40.9251C92.8821 40.7086 92.7779 40.5315 92.7599 40.5315C92.7419 40.5315 92.8165 40.7086 92.9258 40.9251ZM22.2942 40.7334C22.1858 40.936 22.2393 41.0064 22.7651 41.3529C23.7763 42.0191 24.7807 42.4093 27.5105 43.1962C28.4483 43.4665 29.4811 43.7773 29.8058 43.8869C30.5876 44.1508 32.0117 44.8532 32.4592 45.1956C32.7923 45.4505 32.8496 45.4709 33.279 45.4866C33.5328 45.4959 34.0343 45.5802 34.3934 45.6739C35.1996 45.8842 35.2307 45.8848 35.2052 45.6894C35.194 45.6042 35.2282 45.4822 35.2812 45.4183C35.369 45.3126 35.3511 45.279 35.0837 45.0447C34.7165 44.723 33.7287 44.2386 32.6585 43.8554C32.2076 43.694 31.2088 43.2923 30.439 42.9629C26.6955 41.3612 24.2551 40.5971 22.8822 40.5971C22.4278 40.5971 22.3585 40.6132 22.2942 40.7334ZM135.412 41.9048C135.181 42.0944 135.311 42.2637 135.707 42.2896L136.011 42.3096V42.0437C136.011 41.7851 136.005 41.7777 135.789 41.7777C135.666 41.7777 135.498 41.8345 135.412 41.9048ZM50.6398 41.9861C50.4843 42.0209 50.3421 42.0886 50.3237 42.1367C50.3052 42.1848 50.3511 42.3437 50.4258 42.49C50.6783 42.9852 51.4544 43.2863 52.4784 43.2863H53.0561L53.0139 43.1059C52.7994 42.19 51.8115 41.7241 50.6398 41.9861ZM141.864 42.3458C141.819 42.3641 141.782 42.4634 141.782 42.5665C141.782 42.8128 141.995 42.9583 142.354 42.9583C142.622 42.9583 142.635 42.9495 142.635 42.7615C142.635 42.411 142.236 42.1958 141.864 42.3458ZM94.2164 43.3306C94.4977 43.8781 94.7384 44.3155 94.7512 44.3028C94.7812 44.2727 93.9238 42.6054 93.7994 42.4519C93.7473 42.3878 93.935 42.7831 94.2164 43.3306ZM77.5802 42.8519C77.5802 42.8655 77.6318 42.9172 77.695 42.9667C77.799 43.0482 77.8013 43.0459 77.7198 42.9419C77.6341 42.8326 77.5802 42.798 77.5802 42.8519ZM37.2677 43.711C36.9221 43.8613 36.9104 44.3357 37.2523 44.3357C37.4171 44.3357 37.6425 44.0276 37.6425 43.8021C37.6425 43.5916 37.5782 43.576 37.2677 43.711ZM35.7735 45.827C35.8563 45.9132 38.9695 47.556 38.9972 47.5282C39.0086 47.5169 38.7748 47.3726 38.4777 47.2074C37.6298 46.7361 35.7008 45.7514 35.7735 45.827ZM69.7763 46.3361C69.7763 46.4673 69.8091 46.5001 69.9402 46.5001C70.0714 46.5001 70.1042 46.4673 70.1042 46.3361C70.1042 46.205 70.0714 46.1722 69.9402 46.1722C69.8091 46.1722 69.7763 46.205 69.7763 46.3361ZM110.281 46.8778C110.232 46.9576 110.344 47.4722 110.434 47.5811C110.48 47.6359 110.572 47.6807 110.64 47.6807C110.837 47.6807 110.811 47.1976 110.602 46.9891C110.438 46.8246 110.336 46.7893 110.281 46.8778ZM39.2164 47.6433C39.2164 47.6614 39.2754 47.7077 39.3475 47.7463C39.4197 47.7849 39.4787 47.8017 39.4787 47.7837C39.4787 47.7656 39.4197 47.7193 39.3475 47.6807C39.2754 47.6421 39.2164 47.6253 39.2164 47.6433ZM111.557 50.3042C111.634 50.5027 111.741 50.792 111.795 50.9473C111.849 51.1026 111.904 51.2184 111.918 51.2048C111.959 51.1634 111.616 50.1982 111.513 50.0665C111.453 49.989 111.469 50.0769 111.557 50.3042ZM82.5043 50.2136C82.5914 50.3261 82.6758 50.4064 82.6919 50.392C82.7081 50.3776 82.6368 50.2856 82.5336 50.1875L82.346 50.0091L82.5043 50.2136ZM62.1786 50.2045C62.3074 50.3332 63.0216 50.7463 63.0216 50.692C63.0216 50.4468 62.6545 50.1731 62.3254 50.1731C62.2274 50.1731 62.1614 50.1872 62.1786 50.2045ZM88.7642 51.8292C88.8313 52.1407 88.9729 52.3888 89.1325 52.4742C89.2609 52.5429 89.2686 52.5363 89.2257 52.3941C89.1999 52.3089 89.1543 52.1424 89.1242 52.0241C89.0588 51.7667 88.9442 51.616 88.8138 51.616C88.7403 51.616 88.7289 51.6652 88.7642 51.8292ZM94.0406 52.8622C94.0792 52.9344 94.1255 52.9934 94.1436 52.9934C94.1616 52.9934 94.1448 52.9344 94.1062 52.8622C94.0676 52.7901 94.0213 52.731 94.0032 52.731C93.9852 52.731 94.002 52.7901 94.0406 52.8622ZM94.3029 53.3213C94.3416 53.3935 94.3879 53.4525 94.4059 53.4525C94.4239 53.4525 94.4071 53.3935 94.3685 53.3213C94.3299 53.2492 94.2836 53.1902 94.2656 53.1902C94.2475 53.1902 94.2643 53.2492 94.3029 53.3213ZM127.001 53.5563C126.918 53.7728 126.963 54.0891 127.093 54.2068C127.22 54.3225 127.224 54.3214 127.224 54.1589C127.224 54.0536 127.284 53.9528 127.388 53.8849C127.489 53.8181 127.552 53.7159 127.552 53.615C127.552 53.4699 127.524 53.4525 127.296 53.4525C127.124 53.4525 127.028 53.4862 127.001 53.5563ZM50.6272 53.9364C50.6272 53.95 50.6788 54.0017 50.7419 54.0512C50.8459 54.1327 50.8482 54.1304 50.7667 54.0264C50.681 53.9171 50.6272 53.8824 50.6272 53.9364ZM95.3449 55.2745C95.7581 56.0994 96.5139 57.3279 96.6659 57.4219C96.7002 57.4431 96.4748 57.0235 96.1651 56.4895C95.8553 55.9555 95.4538 55.2603 95.2729 54.9446C95.092 54.629 94.9323 54.3707 94.9181 54.3707C94.9039 54.3707 95.096 54.7774 95.3449 55.2745ZM97.4338 57.5576C97.5119 57.6691 97.6277 57.8019 97.691 57.8528C97.7772 57.922 97.7706 57.8943 97.6644 57.7427C97.5863 57.6313 97.4705 57.4985 97.4072 57.4476C97.321 57.3783 97.3276 57.4061 97.4338 57.5576ZM97.4507 58.5028C97.4507 58.5389 97.4819 58.5684 97.52 58.5684C97.5581 58.5684 97.6475 58.7 97.7186 58.8609C97.8558 59.1711 97.9369 59.2559 98.037 59.1939C98.1392 59.1308 97.9798 58.7805 97.7674 58.6018C97.5612 58.4283 97.4507 58.3938 97.4507 58.5028ZM126.078 58.8931C125.952 59.1366 125.951 59.2521 126.076 59.3555C126.158 59.4232 126.174 59.4158 126.174 59.3125C126.174 59.244 126.221 59.1209 126.279 59.0391C126.384 58.8885 126.365 58.6996 126.244 58.6996C126.207 58.6996 126.133 58.7867 126.078 58.8931ZM156.046 58.7963C156.515 58.8451 157.621 58.9473 158.505 59.0233C159.389 59.0995 160.23 59.1742 160.374 59.1894L160.636 59.2171L160.407 59.1139C159.867 58.8712 158.867 58.7596 156.997 58.7331L155.193 58.7075L156.046 58.7963ZM162.825 60.1976C163.019 60.4222 163.235 60.6366 163.305 60.674C163.448 60.7508 164.647 60.6812 164.559 60.6013C164.53 60.5747 164.107 60.4048 163.62 60.2238C163.133 60.0429 162.676 59.871 162.604 59.842C162.523 59.8098 162.61 59.9479 162.825 60.1976ZM91.9257 59.951C91.7886 60.0309 91.7682 60.4525 91.8932 60.6235C91.9793 60.7414 91.9629 60.7441 93.0447 60.4308C93.1712 60.3942 93.0792 60.285 92.7412 60.0705C92.4341 59.8758 92.1311 59.8314 91.9257 59.951ZM90.9584 60.486C90.9584 60.6122 91.3677 60.9952 91.5026 60.9952C91.631 60.9952 91.6466 60.9227 91.541 60.8171C91.5007 60.7768 91.4337 60.675 91.3919 60.5908C91.3062 60.418 90.9584 60.3339 90.9584 60.486ZM97.9774 60.9624C97.9774 61.2404 97.996 61.3271 98.0409 61.2576C98.0759 61.2035 98.1045 61.0706 98.1045 60.9624C98.1045 60.8542 98.0759 60.7214 98.0409 60.6673C97.996 60.5977 97.9774 60.6844 97.9774 60.9624ZM158.152 61.1772C158.129 61.2394 158.096 61.3222 158.077 61.3611C158.058 61.3999 158.112 61.4633 158.197 61.5019C158.324 61.5601 158.364 61.5504 158.43 61.445C158.519 61.3028 158.489 61.2232 158.312 61.1283C158.219 61.0788 158.182 61.0901 158.152 61.1772ZM99.7347 61.2332C99.7717 61.3007 99.8498 61.415 99.9083 61.4871C100.007 61.6089 100.007 61.6033 99.9136 61.4093C99.858 61.2944 99.7798 61.1801 99.7399 61.1554C99.688 61.1233 99.6865 61.1454 99.7347 61.2332ZM43.1765 63.0776C43.1567 63.1408 43.1144 63.2579 43.0825 63.338C43 63.5454 43.1641 63.6213 43.4693 63.5168C43.6781 63.4455 43.7112 63.4049 43.7289 63.1989C43.7492 62.9631 43.7491 62.9629 43.4809 62.9629C43.2828 62.9629 43.2031 62.9929 43.1765 63.0776ZM135.025 63.7556C134.984 63.8308 134.964 63.9047 134.979 63.9198C134.994 63.9349 135.04 63.8734 135.081 63.783C135.172 63.5846 135.128 63.5633 135.025 63.7556ZM89.2822 64.6553C89.4604 64.8411 89.6195 64.9797 89.6358 64.9634C89.6806 64.9186 89.5262 64.7523 89.2268 64.5232C88.9599 64.3188 88.9603 64.3196 89.2822 64.6553ZM155.446 64.543C155.247 64.6008 154.833 64.998 154.833 65.1312C154.833 65.3062 155.539 65.3876 155.846 65.2479C155.988 65.1833 156.013 65.1287 156.013 64.8856C156.013 64.6387 155.99 64.5905 155.845 64.5354C155.752 64.5002 155.671 64.4741 155.664 64.4773C155.658 64.4806 155.559 64.5102 155.446 64.543ZM148.424 64.7994C148.209 65.2329 148.23 65.6153 148.503 66.2594C148.539 66.3443 148.527 66.3654 148.458 66.3389C148.218 66.247 148.101 67.1636 148.336 67.2894C148.777 67.5255 149.389 67.1119 149.389 66.5781C149.389 66.3173 149.153 66.1517 148.834 66.1889L148.606 66.2155L148.588 65.3599L148.57 64.5042L148.424 64.7994ZM133.886 65.2684C133.347 65.8556 132.543 67.0408 132.113 67.882C131.781 68.5319 131.467 68.8446 131.224 68.7673C131.128 68.737 131.092 68.7918 131.025 69.0714C130.766 70.1499 130.271 70.9626 128.992 72.4076C128.457 73.0128 128.346 73.1055 128.082 73.172C127.408 73.3417 126.075 73.2416 124.852 72.9295C124.207 72.7649 124.126 72.7677 123.814 72.9649C123.452 73.1932 121.953 73.9427 121.518 74.1127C120.841 74.3774 120.24 74.5831 119.588 74.7732L118.937 74.9631L118.736 74.8113C118.302 74.4842 117.568 74.1052 116.984 73.9059C116.44 73.7208 116.284 73.6963 115.616 73.6917C114.797 73.6862 114.39 73.7819 113.944 74.0845C113.814 74.1723 113.676 74.2441 113.636 74.2441C113.596 74.2441 113.407 74.0965 113.216 73.9162C112.919 73.6344 112.833 73.5882 112.606 73.5882C112.25 73.5882 112.191 73.7176 112.154 74.5721L112.125 75.2607L111.778 75.7199C111.588 75.9724 111.217 76.5627 110.955 77.0316C110.26 78.2719 109.953 78.7161 109.503 79.1332C109.146 79.4639 109.078 79.5009 108.886 79.4698C108.69 79.438 108.661 79.4563 108.553 79.674C108.457 79.8689 108.363 79.9407 108.044 80.0629C107.334 80.335 106.383 80.2505 104.645 79.7609C104.019 79.5846 103.736 79.5239 102.918 79.3905C102.729 79.3597 102.71 79.3735 102.683 79.559C102.644 79.8251 102.8 79.9459 103.521 80.2069C104.251 80.4709 104.418 80.5612 104.618 80.7991C104.84 81.0623 104.894 81.3357 104.773 81.5712C104.579 81.9455 104.265 81.9877 103.156 81.7883C102.602 81.6886 102.207 81.742 101.161 82.0578C100.057 82.3908 99.4054 82.4521 99.0328 82.2579C98.7788 82.1255 98.768 82.1249 98.7305 82.2429C98.6607 82.4627 98.5152 82.5187 97.8636 82.5766C97.5103 82.6081 96.9725 82.7088 96.6686 82.8006C96.3098 82.9089 95.9534 82.9684 95.6522 82.9702L95.1882 82.9731L94.9423 83.3517C94.793 83.5815 94.6964 83.8098 94.6964 83.9328V84.1352L95.0036 84.0427C95.4639 83.9042 96.7265 83.703 97.6147 83.6267C100.011 83.4208 103.04 83.7186 105.581 84.4098C105.995 84.5224 106.337 84.6202 106.342 84.6272C106.347 84.6342 106.418 84.9167 106.501 85.255C106.749 86.2754 106.708 86.9121 106.384 87.0477C106.272 87.0945 105.492 87.1366 104.301 87.1602C102.65 87.1928 102.373 87.213 102.224 87.3109C101.978 87.4723 101.941 87.6528 102.1 87.9218C102.173 88.0469 102.218 88.1907 102.198 88.2414C102.179 88.2921 102.02 88.3953 101.844 88.4708C101.362 88.6782 100.77 88.6563 100.074 88.4053C98.4785 87.83 98.1983 87.7549 98.2615 87.9196C98.3071 88.0383 98.2286 88.048 98.1179 87.9373C97.8844 87.7038 98.24 88.3571 98.6988 89.0046C98.9818 89.4039 99.2622 89.8776 99.3218 90.0573C99.4385 90.4087 99.4725 90.4183 99.8772 90.2139C100.528 89.8851 101.612 89.7552 102.078 89.9501C102.344 90.0614 102.342 90.1197 102.046 90.8381C101.877 91.2499 101.711 91.5088 100.734 92.8926C100.483 93.2471 100.197 93.7433 100.099 93.9954C99.9479 94.3794 99.8834 94.4685 99.7006 94.5449C99.5805 94.5951 99.3277 94.7809 99.1387 94.9578C98.6354 95.4291 98.1804 95.7572 98.0305 95.7572C97.9508 95.7572 97.9122 95.7896 97.9327 95.8392C98.2984 96.7232 98.395 97.8752 98.1332 98.2284C98.0577 98.3303 97.9034 98.4443 97.7904 98.482L97.5849 98.5504L97.9553 99.1037C98.6671 100.167 98.9755 101.065 98.8297 101.651C98.7267 102.064 98.595 102.251 98.4063 102.251C98.2849 102.251 98.2572 102.278 98.2826 102.375C98.3052 102.462 98.2727 102.514 98.1781 102.544C98.0152 102.595 97.9981 102.811 98.1321 103.122C98.1823 103.238 98.4337 103.566 98.6908 103.851C98.948 104.137 99.18 104.446 99.2063 104.54C99.3074 104.899 99.2517 105.681 99.1048 105.965C98.9642 106.236 98.4141 106.776 98.2776 106.776C98.2376 106.777 98.2934 106.835 98.4016 106.907C98.5098 106.978 98.6455 107.071 98.703 107.113C98.876 107.239 99.1189 107.13 99.2419 106.872C99.3402 106.666 99.3801 106.639 99.5603 106.657C99.7526 106.676 99.7736 106.705 99.8771 107.084C100.05 107.718 100.115 107.785 100.579 107.801C101.144 107.822 101.351 107.934 102.038 108.588C102.439 108.969 102.692 109.163 102.772 109.15C102.873 109.133 102.894 109.172 102.894 109.375C102.894 109.725 103.107 110.119 103.502 110.501C103.93 110.915 104.271 111.196 104.271 111.137C104.271 111.111 104.02 110.725 103.713 110.278C103.405 109.831 103.163 109.465 103.174 109.465C103.185 109.465 103.532 109.61 103.946 109.786C106.597 110.919 108.343 111.824 109.517 112.676C110.065 113.073 110.081 113.079 110.415 113.043C110.602 113.023 111.133 112.873 111.595 112.709C113.029 112.2 113.443 112.089 113.912 112.089C114.294 112.089 114.41 112.121 114.846 112.351C115.389 112.637 115.633 112.676 115.776 112.499C116.218 111.954 116.225 111.948 116.382 111.987C116.486 112.014 116.549 111.994 116.575 111.929C116.595 111.875 116.668 111.814 116.737 111.792C116.82 111.765 116.862 111.692 116.862 111.572C116.862 111.473 116.906 111.335 116.958 111.265C117.011 111.195 117.056 111.071 117.057 110.99C117.059 110.832 117.073 110.826 117.515 110.816C117.806 110.81 117.808 110.809 118.028 110.384C118.149 110.149 118.342 109.857 118.457 109.735C118.76 109.414 119.443 108.985 120.148 108.675C120.487 108.526 120.987 108.289 121.258 108.148C121.53 108.007 121.771 107.891 121.793 107.891C121.861 107.891 121.977 108.291 121.977 108.524C121.977 108.683 122.007 108.744 122.083 108.744C122.152 108.744 122.179 108.784 122.159 108.859C122.142 108.922 121.266 111.271 120.212 114.08C119.159 116.888 118.307 119.196 118.319 119.209C118.359 119.248 120.848 114.248 121.097 113.63C121.739 112.037 122.123 110.503 122.191 109.268C122.202 109.071 122.234 108.979 122.29 108.99C122.448 109.022 122.516 108.666 122.472 108.045C122.439 107.579 122.452 107.391 122.53 107.204L122.631 106.963L122.993 107.001C123.192 107.021 123.523 107.056 123.729 107.078C124.275 107.135 124.907 107.343 125.346 107.609C125.728 107.841 125.734 107.842 126.1 107.765C126.303 107.721 126.789 107.534 127.179 107.349C127.767 107.069 127.882 106.99 127.855 106.887C127.83 106.792 127.851 106.77 127.945 106.795C128.189 106.859 128.491 106.373 128.824 105.378C129.291 103.983 129.585 103.628 130.273 103.628C130.652 103.628 130.886 103.747 131.182 104.094C131.668 104.661 131.696 105.003 131.388 106.604C131.084 108.188 130.68 109.369 130.401 109.492C130.267 109.55 130.268 109.557 130.472 110.082C130.585 110.374 130.774 110.864 130.892 111.171C131.215 112.012 131.605 112.722 131.95 113.097C132.25 113.423 132.263 113.43 132.387 113.318C132.458 113.254 132.586 113.21 132.673 113.219C132.824 113.236 132.831 113.22 132.83 112.834C132.83 112.463 132.789 112.349 132.315 111.394C131.678 110.113 131.611 109.928 131.602 109.421C131.584 108.396 132.412 107.813 133.296 108.229C133.554 108.35 133.715 108.522 133.952 108.927C133.958 108.938 134.058 108.86 134.175 108.754C134.373 108.573 134.382 108.546 134.313 108.339C134.269 108.204 133.997 107.876 133.613 107.496C133.268 107.154 132.947 106.801 132.899 106.711C132.852 106.62 132.778 106.332 132.734 106.069C132.637 105.488 132.72 104.883 132.967 104.37C133.134 104.024 133.515 103.628 133.681 103.628C133.731 103.628 133.929 103.809 134.121 104.03C134.84 104.86 134.957 104.939 135.323 104.847C135.457 104.813 135.487 104.766 135.487 104.586C135.487 104.465 135.441 104.327 135.385 104.281C135.215 104.14 134.956 103.651 134.858 103.284C134.677 102.612 134.677 101.912 134.857 100.263C135.091 98.1189 135.086 97.3529 134.83 96.4708C134.622 95.7499 134.622 95.5801 134.833 95.1669C135.088 94.6663 135.496 94.4188 136.569 94.1119C137.39 93.8769 137.675 93.7458 138.108 93.4034C138.277 93.2704 138.678 93.0629 139 92.9425C140.497 92.3824 140.977 92.0499 141.288 91.3577C141.445 91.0076 141.456 90.9359 141.386 90.7662C141.276 90.4998 141.021 90.3013 140.338 89.9482C139.697 89.6171 139.4 89.3341 139.294 88.9542C139.093 88.2295 139.201 88.1537 141.336 87.5273C141.914 87.3577 142.337 87.0996 142.583 86.7672C142.703 86.6052 142.893 85.7613 142.824 85.693C142.806 85.6747 142.645 85.7149 142.467 85.7823C142.289 85.8497 141.72 85.9968 141.204 86.1091C140.687 86.2213 140.105 86.3887 139.91 86.4809C139.546 86.653 139.184 87.018 139.117 87.2799C139.07 87.4653 139.021 87.4652 138.846 87.279C138.64 87.0596 138.522 86.7307 138.414 86.0768C138.361 85.7555 138.266 85.3745 138.202 85.2302C138.07 84.9326 138.075 84.8416 138.237 84.6083C138.525 84.1943 138.466 84.0641 137.53 83.0644C137.173 82.6825 136.8 82.2223 136.702 82.0416C136.52 81.7061 136.511 81.5583 136.638 80.9502C136.674 80.7772 136.648 80.692 136.503 80.5019C136.265 80.19 136.016 80.0468 135.551 79.9553C135.275 79.901 135.155 79.8449 135.127 79.7575C135.052 79.5209 134.545 78.7947 133.979 78.1139C132.964 76.8932 132.684 76.3313 132.621 75.3919C132.564 74.5279 132.829 73.2816 133.938 69.1938C134.352 67.6672 134.702 66.1065 134.804 65.3302C134.85 64.9795 134.849 64.9761 134.693 65.0172C134.578 65.0476 134.508 65.022 134.432 64.9226C134.331 64.7892 134.32 64.7963 133.886 65.2684ZM167.817 65.1272C167.542 65.2 167.327 65.2216 167.211 65.1882L167.03 65.1365V65.5602C167.03 65.8982 167.053 65.9927 167.142 66.0268C167.203 66.0503 167.584 66.0016 167.988 65.9186C168.392 65.8357 168.753 65.7863 168.789 65.8089C168.826 65.8315 168.875 65.7617 168.899 65.6533C168.923 65.5452 168.97 65.4394 169.004 65.4183C169.039 65.3971 168.974 65.2935 168.861 65.188C168.624 64.9659 168.462 64.9566 167.817 65.1272ZM8.63462 66.2205C8.61055 66.2445 8.59088 66.3183 8.59088 66.3844C8.59088 66.5295 8.80218 66.5468 8.91497 66.4109C8.97714 66.336 8.96639 66.3029 8.86172 66.2469C8.70787 66.1645 8.69233 66.1627 8.63462 66.2205ZM171.359 66.5138C171.16 66.5498 170.854 66.5635 170.679 66.5441L170.359 66.509L170.401 66.72C170.464 67.0444 170.645 67.2407 171.079 67.4557C171.564 67.6956 171.743 67.8496 171.86 68.128C171.96 68.3631 172.046 68.3844 172.363 68.2521C172.764 68.0844 173.26 67.4455 173.26 67.0966C173.26 67.0225 173.159 66.8516 173.036 66.7168C172.813 66.4741 172.806 66.4717 172.265 66.4601C171.965 66.4536 171.557 66.4778 171.359 66.5138ZM99.2214 69.4466C99.2214 69.6115 99.317 69.7182 99.5266 69.7874C99.8082 69.8804 99.8483 69.8459 99.7351 69.6087C99.6693 69.4708 99.5922 69.4181 99.434 69.4028C99.317 69.3915 99.2214 69.4112 99.2214 69.4466ZM119.748 69.7021C119.749 69.8301 119.796 69.9045 119.912 69.9583C120.065 70.0291 120.076 70.0224 120.076 69.8566C120.076 69.6662 119.971 69.5217 119.833 69.5217C119.784 69.5217 119.748 69.5976 119.748 69.7021ZM102.514 71.7359C102.565 72.2701 102.804 72.6123 103.059 72.5148C103.169 72.4725 103.168 72.4611 103.042 72.3239C102.968 72.2437 102.887 72.0748 102.862 71.9485C102.807 71.6789 102.659 71.4238 102.556 71.4238C102.509 71.4238 102.494 71.5339 102.514 71.7359ZM155.132 71.5269C155.018 71.6413 154.997 71.7518 155.089 71.7518C155.22 71.7518 155.364 71.6647 155.427 71.5472C155.481 71.4458 155.47 71.4238 155.364 71.4238C155.293 71.4238 155.189 71.4702 155.132 71.5269ZM180.698 72.7589C180.456 72.8693 180.184 73.1933 180.265 73.2742C180.373 73.3821 181.352 73.5461 181.603 73.4983C181.853 73.4508 182.269 73.1045 182.227 72.979C182.157 72.7663 181.035 72.605 180.698 72.7589ZM188.589 74.9712C188.245 75.0523 187.716 75.3273 187.316 75.6327C187.004 75.8708 186.447 76.5669 186.514 76.6342C186.53 76.65 187.003 76.5922 187.564 76.5057C189.017 76.282 189.512 76.0977 189.942 75.6217C190.259 75.2707 190.244 75.0966 189.885 74.9889C189.578 74.8969 188.941 74.8882 188.589 74.9712ZM91.6263 75.4083C91.6415 75.4885 91.7219 75.5292 91.8934 75.5434C92.1923 75.5682 92.2151 75.4641 91.9323 75.3656C91.651 75.2674 91.6009 75.2745 91.6263 75.4083ZM146.834 76.4069C146.643 76.5975 146.602 76.84 146.728 77.0321C146.952 77.3736 147.222 77.1565 147.322 76.5561C147.368 76.2784 147.367 76.2774 147.166 76.2774C147.051 76.2774 146.907 76.3338 146.834 76.4069ZM161.194 76.7469C161.068 76.7823 160.809 76.8555 160.62 76.9097L160.276 77.0082V77.585C160.276 78.0641 160.298 78.1902 160.408 78.33C160.481 78.4225 160.513 78.5151 160.48 78.5357C160.396 78.5875 160.462 78.8058 160.599 78.9299C160.704 79.0248 160.719 79.0198 160.788 78.8686C160.831 78.775 160.918 78.7042 160.991 78.7042C161.061 78.7042 161.128 78.6542 161.14 78.5931C161.157 78.5044 161.234 78.4824 161.522 78.4842C161.815 78.4859 161.83 78.4816 161.602 78.4604C161.448 78.4461 161.339 78.4066 161.36 78.3727C161.381 78.3387 161.352 78.2452 161.296 78.165C161.109 77.8983 161.204 77.366 161.48 77.1374C161.592 77.0444 161.604 76.6678 161.495 76.6768C161.456 76.6801 161.32 76.7116 161.194 76.7469ZM95.427 77.0299C95.5115 77.1145 99.0149 78.4798 99.9521 78.7934C100.996 79.1429 102.418 79.5295 102.47 79.478C102.484 79.4639 101.324 79.0429 99.8911 78.5424C98.4587 78.0419 96.8896 77.4898 96.4042 77.3156C95.583 77.0209 95.3498 76.9527 95.427 77.0299ZM147.422 77.4635C147.26 77.5371 147.063 77.6573 146.985 77.7306C146.862 77.8458 146.852 77.892 146.912 78.0708C147.005 78.3517 147.068 78.4047 147.499 78.5622C147.984 78.7398 148.817 78.8784 149.911 78.9635C151.203 79.064 151.226 79.0624 151.226 78.8761C151.226 78.7904 151.273 78.6813 151.33 78.6337C151.425 78.5551 151.423 78.5387 151.314 78.4562C151.04 78.2503 149.779 77.6588 149.271 77.4986C148.575 77.2787 147.86 77.2651 147.422 77.4635ZM55.2833 77.8865C55.9249 78.0144 56.3047 78.0656 56.2577 78.0178C56.2114 77.9707 55.1126 77.7819 54.9554 77.794C54.9013 77.7981 55.0488 77.8398 55.2833 77.8865ZM26.8929 77.8775C26.908 77.8918 27.4367 78.0229 28.0679 78.1688C29.4403 78.4859 30.7342 78.7089 32.4617 78.9263C35.2031 79.2712 34.7532 79.1408 31.019 78.5082C27.47 77.9071 26.8195 77.8076 26.8929 77.8775ZM143.028 78.0456L142.668 78.166L143.881 78.1724C144.548 78.1759 145.389 78.1583 145.75 78.1332L146.406 78.0877L145.75 78.006C144.742 77.8806 143.467 77.8991 143.028 78.0456ZM196.032 78.2412C195.758 78.3092 195.279 78.6247 195.328 78.7042C195.378 78.7847 195.803 78.9002 196.049 78.9002C196.51 78.9002 197 78.6505 197 78.416C197 78.3658 196.96 78.3091 196.91 78.2901C196.72 78.2172 196.237 78.1903 196.032 78.2412ZM151.905 78.7022C151.883 78.812 151.812 78.9141 151.743 78.9362C151.592 78.9839 151.581 79.1345 151.723 79.1891C151.897 79.2558 151.947 79.2347 151.947 79.0945C151.947 79.0207 152.027 78.8861 152.125 78.7955C152.272 78.6591 152.286 78.6202 152.207 78.57C152.037 78.4625 151.945 78.5029 151.905 78.7022ZM153.242 78.6864L152.472 78.7083V78.896C152.472 78.9992 152.43 79.0996 152.38 79.119C152.308 79.1465 152.343 79.2612 152.54 79.6355C152.678 79.9002 152.865 80.1857 152.955 80.27C153.117 80.4227 153.119 80.4228 153.467 80.3108C153.93 80.1615 154.731 79.7322 155.082 79.4456C155.335 79.2381 155.352 79.2069 155.252 79.1335C155.183 79.0829 155.16 79.0196 155.193 78.9663C155.228 78.9097 155.221 78.8965 155.171 78.9274C155.121 78.9584 155.101 78.923 155.111 78.8227C155.127 78.6754 155.113 78.6713 154.57 78.6679C154.264 78.666 153.666 78.6743 153.242 78.6864ZM158.192 78.9375C157.978 79.0873 157.999 79.2422 158.226 79.1895C158.451 79.1374 158.702 78.9844 158.702 78.8994C158.702 78.7986 158.353 78.8246 158.192 78.9375ZM90.4993 84.2369C90.4993 84.3473 90.4636 84.4104 90.401 84.4104C90.1375 84.4104 90.3726 84.639 91.1727 85.1604C91.5963 85.4366 91.7819 85.6023 91.8777 85.79C92.0332 86.0949 92.0381 86.2097 91.9108 86.5705C91.8147 86.8428 91.8151 86.8447 91.96 86.8012C92.2738 86.707 92.6325 86.4662 92.7757 86.2536C93.3133 85.4553 92.2606 84.228 90.932 84.1039L90.4993 84.0635V84.2369ZM169.743 85.0991C169.67 85.2895 169.772 85.4037 169.997 85.382C170.368 85.3461 170.308 85.0042 169.93 85.0017C169.848 85.0011 169.764 85.0449 169.743 85.0991ZM172.431 88.0828C172.274 88.1461 172.08 88.3932 172.08 88.5293C172.08 88.6612 172.481 89.0371 172.6 89.0171C172.656 89.0075 172.828 88.9343 172.982 88.8544C173.18 88.7508 173.26 88.668 173.26 88.5656C173.26 88.3336 173.191 88.2158 172.993 88.1137C172.786 88.0067 172.64 87.9987 172.431 88.0828ZM90.0011 89.6512C89.7379 89.7707 89.5918 89.962 89.6938 90.0532C89.7983 90.1466 90.3991 90.3134 90.6312 90.3134C90.932 90.3134 90.9959 90.2536 90.824 90.1332C90.7506 90.0818 90.6443 89.9242 90.5878 89.7829C90.4713 89.4917 90.3917 89.4738 90.0011 89.6512ZM49.1024 90.0885C48.8891 90.2043 48.8673 90.3134 49.0576 90.3134C49.2484 90.3134 49.4467 90.1952 49.4467 90.0815C49.4467 89.9607 49.3338 89.963 49.1024 90.0885ZM93.0195 91.0202C93.0475 91.1084 93.0254 91.1641 92.951 91.1926C92.8611 91.2271 92.8847 91.2673 93.0803 91.4135C93.4492 91.6892 93.7361 92.1467 94.1435 93.1087C94.5849 94.151 94.8024 94.4807 95.0906 94.544C95.2035 94.5688 95.3098 94.5753 95.3267 94.5584C95.3435 94.5415 95.3254 94.3274 95.2863 94.0827C95.2338 93.7542 95.2359 93.4312 95.2942 92.8485L95.3733 92.0593L95.0415 91.7542C94.5991 91.3473 93.9553 91.0514 93.2634 90.937C92.9989 90.8933 92.9811 90.8994 93.0195 91.0202ZM149.297 91.8994C149.164 92.0894 149.268 92.2154 149.559 92.2154C149.781 92.2154 149.914 92.082 149.914 91.859C149.914 91.6886 149.422 91.7209 149.297 91.8994ZM95.4203 95.6028C95.419 95.644 95.4789 95.8756 95.5535 96.1174C95.6978 96.5846 95.8033 96.674 95.683 96.2272C95.5976 95.91 95.4239 95.4972 95.4203 95.6028ZM77.753 97.992C77.658 98.0667 77.5802 98.1864 77.5802 98.2578C77.5802 98.3732 77.6185 98.3854 77.9245 98.3678C78.2483 98.3492 78.2678 98.3382 78.2512 98.184C78.2352 98.0354 78.0814 97.8561 77.97 97.8561C77.9457 97.8561 77.8481 97.9173 77.753 97.992ZM139.618 100.72C139.24 100.852 138.803 101.166 138.708 101.373C138.668 101.462 138.634 101.714 138.634 101.932V102.329L139.11 102.286C139.371 102.262 139.925 102.201 140.34 102.15C140.754 102.099 141.551 102.012 142.11 101.956C142.669 101.9 143.253 101.837 143.408 101.815C143.563 101.793 143.681 101.801 143.671 101.833C143.647 101.907 144.219 102.896 144.434 103.152C144.624 103.378 144.914 103.53 145.283 103.599L145.538 103.646L145.491 103.391C145.421 103.011 145.139 102.538 144.837 102.293C144.344 101.893 143.856 101.594 143.811 101.666C143.785 101.71 143.538 101.625 143.146 101.438C142.313 101.041 141.904 100.88 141.356 100.735C140.796 100.586 140.02 100.58 139.618 100.72ZM86.8289 101.714C86.6917 101.756 86.8418 101.84 87.8126 102.263C88.4427 102.538 89.8435 103.152 90.9256 103.629C92.0077 104.106 93.0848 104.578 93.3192 104.677C93.5537 104.777 94.4223 105.157 95.2494 105.521C96.0767 105.885 96.7616 106.175 96.7716 106.165C96.7816 106.155 96.577 106.018 96.3169 105.859C96.0569 105.701 95.1358 105.094 94.2701 104.511C91.7834 102.835 90.6104 102.224 89.2247 101.883C88.5363 101.714 87.1474 101.616 86.8289 101.714ZM85.0277 103.339C84.8136 103.391 84.6218 103.452 84.6014 103.474C84.5637 103.514 86.042 103.465 87.286 103.384C87.8855 103.345 87.9364 103.333 87.6794 103.292C87.1554 103.207 85.4463 103.238 85.0277 103.339ZM88.8263 103.301C88.7604 103.408 88.7874 103.417 89.2205 103.432C89.7892 103.453 89.8913 103.441 89.927 103.348C89.9695 103.237 88.894 103.192 88.8263 103.301ZM83.0439 104.149C82.9289 104.219 82.8007 104.341 82.7588 104.419C82.6928 104.542 82.7221 104.534 82.9809 104.356C83.4306 104.047 83.4804 103.883 83.0439 104.149ZM135.815 104.892C135.815 104.91 136.309 105.303 136.913 105.765C137.517 106.227 138.314 106.838 138.684 107.122C139.053 107.406 139.356 107.613 139.356 107.58C139.356 107.548 139.151 107.299 138.9 107.027C138.436 106.524 137.754 106.019 136.711 105.407C136.393 105.22 136.061 105.02 135.974 104.963C135.886 104.906 135.815 104.874 135.815 104.892ZM72.7274 105.366C72.6596 105.448 72.6672 105.464 72.7724 105.464C72.8421 105.464 72.9563 105.508 73.0263 105.561C73.3084 105.774 73.7169 105.61 73.5136 105.365C73.4041 105.233 72.8371 105.234 72.7274 105.366ZM76.0185 105.535C75.7187 105.564 75.24 105.665 74.9548 105.76C74.4264 105.936 73.6277 106.4 73.7936 106.434C73.8826 106.453 78.9645 105.61 79.0043 105.57C79.0325 105.542 77.3022 105.462 76.8977 105.473C76.714 105.478 76.3184 105.506 76.0185 105.535ZM139.421 107.828C139.421 107.97 139.671 108.493 139.842 108.711C139.899 108.783 139.841 108.61 139.714 108.325C139.587 108.041 139.491 107.799 139.502 107.789C139.512 107.778 139.773 108.011 140.08 108.306C140.387 108.601 141.124 109.3 141.717 109.859C142.311 110.418 143.062 111.128 143.388 111.437C143.713 111.746 144.744 112.72 145.679 113.602C151.564 119.148 152.767 120.302 152.767 120.404C152.767 120.487 152.696 120.526 152.505 120.55C152.331 120.572 152.237 120.619 152.223 120.691C152.211 120.752 152.401 121.026 152.653 121.314C153.31 122.066 153.708 122.584 154.837 124.157C156.633 126.661 157.179 127.268 158.327 128.038C159.167 128.602 159.662 129.099 160.282 130.004C160.858 130.844 161.281 131.276 162.087 131.845C162.736 132.304 163.104 132.686 163.324 133.126C163.419 133.316 163.539 133.471 163.591 133.471C163.644 133.471 163.862 133.632 164.077 133.83C164.52 134.236 164.747 134.327 164.923 134.167C164.988 134.109 165.107 134.061 165.187 134.061C165.309 134.061 165.326 134.036 165.289 133.913C165.116 133.341 164.745 132.929 163.817 132.278C162.893 131.63 161.388 129.776 160.44 128.12C159.344 126.205 158.902 125.72 156.505 123.798C154.842 122.465 153.944 121.597 153.433 120.828C153.216 120.501 153.093 120.373 153.012 120.39C152.932 120.406 152.667 120.142 152.133 119.514C150.459 117.547 148.905 115.863 147.031 113.985C144.946 111.893 143.412 110.538 141.618 109.201C140.756 108.557 139.516 107.694 139.455 107.694C139.436 107.694 139.421 107.754 139.421 107.828ZM70.3927 108.05C70.1454 108.158 70.0459 108.35 70.2374 108.35C70.3724 108.35 70.6288 108.135 70.6288 108.022C70.6288 107.943 70.6427 107.942 70.3927 108.05ZM100.604 108.585C100.607 108.662 100.622 108.677 100.643 108.625C100.662 108.578 100.66 108.521 100.638 108.499C100.616 108.477 100.601 108.516 100.604 108.585ZM134.936 110.433C135.772 112.045 135.905 112.245 135.591 111.41C135.381 110.852 134.436 109.203 134.326 109.203C134.311 109.203 134.586 109.756 134.936 110.433ZM141.104 110.417C141.418 110.815 142.073 111.493 141.923 111.265C141.707 110.936 141.304 110.47 141.094 110.307L140.897 110.154L141.104 110.417ZM70.1782 111.208C70.0024 111.431 70.0004 111.64 70.1726 111.796C70.2902 111.903 70.3014 111.904 70.2639 111.806C70.2404 111.745 70.2702 111.573 70.33 111.423C70.4659 111.083 70.3761 110.956 70.1782 111.208ZM99.5985 111.449C99.3092 111.77 99.3771 112.033 99.7099 111.882C99.8821 111.803 99.9729 111.604 99.9322 111.394C99.8974 111.215 99.794 111.232 99.5985 111.449ZM128.404 111.925C128.404 112.056 128.437 112.089 128.568 112.089C128.699 112.089 128.732 112.056 128.732 111.925C128.732 111.794 128.699 111.761 128.568 111.761C128.437 111.761 128.404 111.794 128.404 111.925ZM135.317 112.162C135.189 112.348 135.155 112.468 135.171 112.685C135.189 112.929 135.223 112.986 135.421 113.102C135.551 113.178 135.82 113.251 136.039 113.269L136.427 113.302L136.982 114.305C137.287 114.856 137.549 115.295 137.564 115.28C137.613 115.231 136.99 113.993 136.692 113.549C136.529 113.307 136.425 113.099 136.461 113.087C136.54 113.06 136.336 112.289 136.193 112.075C136.114 111.955 136.032 111.924 135.789 111.923C135.511 111.921 135.47 111.942 135.317 112.162ZM70.6007 112.126C70.4484 112.279 70.4735 112.385 70.7088 112.583L70.92 112.76L70.9761 112.544C71.0788 112.148 70.8424 111.885 70.6007 112.126ZM68.2516 112.16C68.1187 112.237 68.0971 112.417 68.2206 112.417C68.3314 112.417 68.5959 112.229 68.5959 112.151C68.5959 112.07 68.3971 112.075 68.2516 112.16ZM82.12 112.569C81.9244 112.783 81.8006 113.06 81.6591 113.601C81.5889 113.87 81.5204 114.131 81.5068 114.183C81.4914 114.242 81.5956 114.332 81.7848 114.424C81.9513 114.505 82.1024 114.611 82.1207 114.658C82.1646 114.773 82.8406 114.81 83.0297 114.709C83.1635 114.637 83.1695 114.602 83.1291 114.116C83.084 113.575 83.1525 113.281 83.3761 113.057C83.4772 112.956 83.4585 112.949 83.1065 112.961L82.7282 112.974L82.6685 112.705C82.6168 112.472 82.5844 112.435 82.4296 112.431C82.3243 112.428 82.1968 112.485 82.12 112.569ZM89.0566 112.915C90.5743 113.167 90.8539 113.175 90.272 112.952C89.7045 112.734 89.33 112.678 88.4739 112.685L87.7122 112.691L89.0566 112.915ZM116.646 113.114C116.585 113.175 116.722 113.401 116.819 113.401C116.864 113.401 116.936 113.366 116.978 113.324C117.036 113.266 117.028 113.227 116.942 113.162C116.818 113.068 116.71 113.05 116.646 113.114ZM97.6475 113.481C97.5212 113.56 97.3962 113.656 97.3697 113.693C97.2695 113.835 97.3217 114.854 97.4598 115.451C97.5368 115.784 97.6372 116.234 97.6829 116.45C97.7285 116.667 97.7693 116.785 97.7736 116.713C97.778 116.641 97.8243 115.991 97.8766 115.27C97.985 113.775 97.9963 113.335 97.9262 113.336C97.8992 113.337 97.7737 113.402 97.6475 113.481ZM132.564 113.543C132.58 113.604 132.613 113.759 132.637 113.888C132.676 114.094 132.665 114.122 132.548 114.122C132.474 114.122 132.35 114.203 132.272 114.302C132.06 114.572 132.106 115.247 132.362 115.617C132.552 115.891 132.745 116.019 132.786 115.897C132.798 115.859 132.845 115.827 132.89 115.827C133.034 115.827 133.192 115.382 133.186 114.989C133.18 114.481 133.056 114.153 132.873 114.16C132.765 114.164 132.732 114.126 132.729 113.996C132.728 113.903 132.683 113.738 132.63 113.63C132.577 113.522 132.547 113.483 132.564 113.543ZM103.397 114.297C103.309 114.384 103.358 114.448 103.637 114.611C103.962 114.802 104.109 114.821 104.164 114.68C104.184 114.625 104.171 114.581 104.134 114.581C104.097 114.581 103.959 114.507 103.826 114.417C103.579 114.249 103.474 114.22 103.397 114.297ZM72.698 114.904C72.6777 114.937 72.6946 114.975 72.7356 114.988C72.7767 115.002 72.8581 115.142 72.9164 115.3C73.0432 115.643 73.1865 115.726 73.1862 115.456C73.1857 115.102 72.8265 114.696 72.698 114.904ZM109.419 114.956C109.311 114.971 109.119 115.01 108.993 115.042C108.774 115.099 108.763 115.115 108.771 115.38C108.779 115.711 108.882 115.797 109.375 115.891C109.838 115.979 110.304 115.876 110.57 115.627C110.685 115.52 110.764 115.386 110.752 115.321C110.709 115.087 109.96 114.882 109.419 114.956ZM82.3736 115.111C82.3703 115.204 82.4274 115.612 82.5005 116.019C82.6131 116.644 82.7038 116.938 83.003 117.648C83.0261 117.703 83.0019 117.717 82.9322 117.69C82.8427 117.656 82.8266 117.707 82.8266 118.022C82.8266 118.745 82.9844 118.793 83.9345 118.361C84.281 118.203 84.7046 118.054 84.8759 118.029C85.0823 117.999 85.1874 117.952 85.1874 117.889C85.1874 117.837 85.2317 117.795 85.2858 117.795C85.3545 117.795 85.3842 117.726 85.3842 117.565C85.3842 117.377 85.4086 117.336 85.5196 117.336C85.5941 117.336 85.7152 117.304 85.7886 117.264C85.9194 117.194 85.9184 117.189 85.7392 117.002L85.5564 116.811L85.7397 116.62C85.9335 116.417 85.9248 116.277 85.7218 116.331C85.6551 116.348 85.5468 116.309 85.4811 116.243C85.3828 116.145 85.3563 116.14 85.3303 116.219C85.3129 116.271 85.1656 116.456 85.0029 116.63C84.6735 116.982 84.0936 117.291 83.5416 117.408C83.3467 117.45 83.1667 117.516 83.1416 117.555C83.1166 117.595 83.084 117.613 83.0693 117.596C83.0547 117.579 82.8935 116.975 82.7112 116.254C82.5289 115.532 82.377 115.018 82.3736 115.111ZM127.709 115.197C127.642 115.372 127.815 115.816 128.014 115.984C128.205 116.145 128.577 116.285 128.815 116.286C128.908 116.286 128.923 116.251 128.889 116.106C128.796 115.704 128.603 115.368 128.392 115.239C128.141 115.086 127.761 115.062 127.709 115.197ZM149.717 115.43C149.717 115.669 149.843 115.887 150.039 115.988C150.276 116.111 150.701 116.121 150.849 116.008C150.944 115.935 150.946 115.902 150.864 115.71C150.752 115.451 150.442 115.303 150.015 115.303C149.764 115.303 149.717 115.323 149.717 115.43ZM85.7521 115.551C85.7002 115.651 85.6391 115.851 85.6164 115.994L85.5751 116.254L85.6734 116.04C85.7841 115.799 85.9118 115.368 85.8724 115.368C85.8582 115.368 85.8041 115.45 85.7521 115.551ZM73.1864 116.283C73.1864 116.565 73.2845 116.691 73.3483 116.49C73.3965 116.338 73.3269 116.024 73.2449 116.024C73.2127 116.024 73.1864 116.14 73.1864 116.283ZM122.701 117.02C122.5 117.86 122.38 118.585 122.453 118.517C122.505 118.467 122.974 116.212 122.939 116.177C122.922 116.16 122.815 116.539 122.701 117.02ZM138.05 116.286C138.145 116.487 138.175 116.524 138.175 116.441C138.175 116.406 138.13 116.32 138.073 116.25C137.977 116.13 137.976 116.132 138.05 116.286ZM138.241 116.68C138.28 116.752 138.326 116.811 138.344 116.811C138.362 116.811 138.345 116.752 138.307 116.68C138.268 116.608 138.222 116.549 138.204 116.549C138.186 116.549 138.202 116.608 138.241 116.68ZM73.1208 117.168C73.1208 117.479 73.6009 117.636 73.9728 117.448C74.0626 117.403 74.1454 117.317 74.1567 117.259C74.1724 117.177 74.1246 117.152 73.9521 117.152C73.8282 117.152 73.6663 117.12 73.5922 117.08C73.518 117.04 73.3817 117.008 73.2891 117.008C73.1544 117.008 73.1208 117.04 73.1208 117.168ZM138.478 117.11C138.456 117.167 138.485 117.302 138.541 117.41C138.597 117.518 138.699 117.903 138.767 118.264C138.944 119.188 139.158 119.5 139.617 119.5C139.794 119.5 139.838 119.463 139.948 119.222C140.017 119.068 140.075 118.852 140.076 118.741C140.08 118.183 139.566 117.415 139.006 117.144C138.669 116.981 138.531 116.973 138.478 117.11ZM97.5941 117.32C97.5238 117.419 97.4206 117.633 97.3648 117.795C97.3091 117.957 96.9202 118.762 96.5007 119.582C96.0812 120.403 95.7522 121.074 95.7695 121.074C95.787 121.074 95.9395 120.856 96.1085 120.589C96.338 120.227 96.4786 120.076 96.6635 119.992C97.2365 119.734 97.9537 119.137 98.1524 118.754C98.312 118.446 98.3633 118.141 98.2965 117.899C98.2303 117.66 97.8785 117.139 97.7827 117.139C97.7493 117.139 97.6645 117.22 97.5941 117.32ZM100.301 117.209C100.244 117.301 100.461 117.462 100.644 117.465C100.825 117.468 100.896 117.359 100.793 117.235C100.701 117.124 100.364 117.106 100.301 117.209ZM102.084 117.6C101.873 117.663 101.452 117.934 101.452 118.007C101.451 118.06 101.574 118.017 102.123 117.773C102.331 117.681 102.5 117.589 102.5 117.569C102.5 117.519 102.307 117.533 102.084 117.6ZM107.053 117.713C107.05 117.812 107.009 118.028 106.961 118.193C106.878 118.477 106.881 118.501 107.031 118.674C107.118 118.775 107.269 118.899 107.367 118.949C107.529 119.034 107.551 119.031 107.614 118.913C107.652 118.842 107.722 118.799 107.769 118.817C107.824 118.838 107.893 118.754 107.957 118.591C108.05 118.356 108.049 118.323 107.955 118.228C107.898 118.171 107.85 118.046 107.848 117.95C107.845 117.798 107.799 117.761 107.484 117.656C107.029 117.505 107.059 117.501 107.053 117.713ZM133.262 117.667C133.251 117.741 133.531 118.961 133.66 119.402C133.848 120.045 134.2 120.686 134.556 121.038C134.824 121.302 134.962 121.395 134.962 121.31C134.962 121.296 134.62 120.551 134.202 119.654C133.784 118.758 133.403 117.936 133.355 117.828C133.307 117.72 133.265 117.647 133.262 117.667ZM110.126 119.074C110.127 119.254 110.14 119.32 110.155 119.221C110.17 119.121 110.169 118.973 110.154 118.893C110.138 118.812 110.126 118.894 110.126 119.074ZM107.681 118.903C107.681 118.935 107.742 119.031 107.815 119.116L107.95 119.271L107.847 119.058C107.745 118.848 107.681 118.788 107.681 118.903ZM121.923 119.342C121.772 119.471 121.576 119.701 121.487 119.852C121.308 120.159 120.915 121.083 120.949 121.117C120.973 121.141 122.305 119.198 122.305 119.141C122.305 119.057 122.177 119.125 121.923 119.342ZM122.468 119.336C122.558 119.62 122.855 120.35 122.872 120.333C122.914 120.291 122.628 119.453 122.531 119.334C122.427 119.206 122.426 119.206 122.468 119.336ZM110.055 119.599C110.056 119.707 110.071 119.743 110.087 119.679C110.104 119.616 110.103 119.527 110.085 119.483C110.067 119.438 110.053 119.49 110.055 119.599ZM115.699 119.976C115.655 120.075 115.636 120.238 115.656 120.338C115.689 120.505 115.639 120.561 115.031 121.028C114.608 121.353 114.37 121.58 114.37 121.659C114.37 121.727 114.444 121.911 114.533 122.068C114.636 122.248 114.697 122.457 114.697 122.632L114.698 122.911H115.352C116.003 122.911 116.007 122.912 116.102 123.096C116.155 123.198 116.244 123.32 116.3 123.366C116.386 123.438 116.403 123.434 116.403 123.345C116.403 123.287 116.433 123.239 116.469 123.239C116.506 123.239 116.534 123.037 116.534 122.763C116.535 122.163 116.669 121.87 116.993 121.759C117.12 121.716 117.215 121.647 117.206 121.607C117.197 121.567 117.234 121.534 117.288 121.534C117.343 121.534 117.387 121.48 117.387 121.415C117.387 121.35 117.461 121.197 117.551 121.074C117.641 120.952 117.715 120.785 117.715 120.704C117.715 120.558 117.71 120.557 117.444 120.651C117.086 120.777 116.594 120.772 116.166 120.637L115.819 120.528L115.798 120.162C115.779 119.813 115.774 119.804 115.699 119.976ZM93.4413 120.152C93.259 120.301 93.3171 120.395 93.629 120.458C93.8006 120.492 93.8653 120.468 94.0041 120.318C94.0963 120.219 94.1718 120.112 94.1718 120.081C94.1718 119.968 93.5989 120.023 93.4413 120.152ZM110.053 120.878C110.048 121.846 110.341 130.315 110.38 130.354C110.443 130.418 110.816 128.883 110.89 128.256C111.095 126.517 110.891 124.297 110.241 121.206L110.055 120.32L110.053 120.878ZM53.0485 120.741C52.9107 120.879 52.8569 120.997 52.8569 121.16C52.8569 121.449 52.9984 121.566 53.3372 121.557C53.7818 121.545 54.0928 121.073 53.9319 120.654C53.903 120.578 53.8029 120.55 53.5662 120.55C53.2934 120.55 53.209 120.581 53.0485 120.741ZM123.035 120.878C123.034 120.932 123.104 121.109 123.191 121.271C123.277 121.434 123.348 121.537 123.348 121.501C123.346 121.388 123.038 120.774 123.035 120.878ZM119.518 120.978C119.374 121.025 119.178 121.067 119.083 121.069C118.968 121.073 118.855 121.148 118.741 121.298C118.294 121.883 118.07 122.615 118.361 122.539C118.435 122.519 118.5 122.549 118.524 122.613C118.558 122.7 118.662 122.652 119.107 122.345C119.965 121.754 120.403 121.28 120.403 120.945C120.403 120.852 119.838 120.873 119.518 120.978ZM95.4325 121.513C95.0681 122.027 94.6904 122.828 94.6989 123.07C94.7003 123.109 94.9051 122.743 95.154 122.257C95.6014 121.383 95.6866 121.156 95.4325 121.513ZM91.5916 121.654C91.4699 121.788 91.4495 121.964 91.5485 122.025C91.6223 122.071 91.9368 121.742 91.94 121.616C91.9431 121.492 91.715 121.517 91.5916 121.654ZM88.613 122.019C88.6505 122.352 88.8094 122.583 89.0012 122.583C89.269 122.583 89.1034 122.022 88.7791 121.83L88.5784 121.712L88.613 122.019ZM117.348 121.843C117.276 121.958 117.347 122.42 117.456 122.542C117.513 122.605 117.609 122.075 117.573 121.891C117.542 121.73 117.434 121.707 117.348 121.843ZM75.8752 122.747C75.8752 122.878 75.908 122.911 76.0391 122.911C76.1703 122.911 76.2031 122.878 76.2031 122.747C76.2031 122.616 76.1703 122.583 76.0391 122.583C75.908 122.583 75.8752 122.616 75.8752 122.747ZM118.32 123.246C118.276 123.485 118.243 123.825 118.247 124.001C118.253 124.25 118.275 124.176 118.346 123.665C118.452 122.894 118.436 122.622 118.32 123.246ZM111.756 123.109C111.618 123.235 111.552 123.346 111.577 123.41C111.598 123.466 111.616 123.539 111.616 123.572C111.616 123.683 111.877 123.634 112.013 123.497C112.105 123.406 112.142 123.297 112.128 123.158C112.101 122.883 112.015 122.872 111.756 123.109ZM101.451 123.239C101.451 123.425 101.466 123.436 101.713 123.436C101.93 123.436 101.976 123.413 101.976 123.307C101.976 123.164 101.796 123.042 101.587 123.042C101.48 123.042 101.451 123.084 101.451 123.239ZM90.6305 123.56C90.6305 123.773 90.6673 123.922 90.7368 123.992C90.9021 124.157 91.0537 124.089 91.0777 123.839C91.0992 123.616 90.9807 123.422 90.746 123.296C90.643 123.241 90.6305 123.269 90.6305 123.56ZM86.5646 124.557C84.9037 125.398 84.6789 125.553 85.8104 125.075C86.6706 124.712 88.5172 123.699 88.3024 123.708C88.2664 123.709 87.4843 124.091 86.5646 124.557ZM94.1718 124.077C94.1718 124.393 94.3256 124.616 94.5433 124.616C94.693 124.616 94.7059 124.597 94.6656 124.436C94.6147 124.232 94.3284 123.829 94.234 123.829C94.1998 123.829 94.1718 123.941 94.1718 124.077ZM116.479 124.354C116.479 124.444 116.494 124.481 116.512 124.436C116.53 124.391 116.53 124.317 116.512 124.272C116.494 124.227 116.479 124.264 116.479 124.354ZM96.4015 124.507C96.4015 124.693 96.5522 125.047 96.6784 125.157C96.8737 125.328 97.1118 125.306 97.1603 125.113C97.2429 124.784 97.0574 124.574 96.5818 124.46C96.4518 124.429 96.4015 124.442 96.4015 124.507ZM116.549 124.879C116.549 125.005 116.563 125.057 116.579 124.993C116.596 124.93 116.596 124.827 116.579 124.764C116.563 124.701 116.549 124.752 116.549 124.879ZM118.158 124.813C118.084 125.065 118.094 125.246 118.179 125.162C118.217 125.124 118.239 124.992 118.228 124.871C118.208 124.662 118.204 124.659 118.158 124.813ZM118.698 125.043C118.743 125.097 118.81 125.141 118.846 125.141C118.882 125.141 118.875 125.097 118.83 125.043C118.785 124.988 118.718 124.944 118.682 124.944C118.646 124.944 118.653 124.988 118.698 125.043ZM116.616 125.371C116.617 125.515 116.631 125.566 116.646 125.485C116.662 125.403 116.661 125.285 116.645 125.222C116.629 125.159 116.616 125.226 116.616 125.371ZM93.8864 126.073C93.8651 126.3 93.8328 126.722 93.8147 127.01L93.7818 127.535L93.8756 127.109C93.965 126.702 94.0182 125.753 93.9552 125.689C93.9388 125.673 93.9079 125.846 93.8864 126.073ZM116.671 125.901C116.674 125.977 116.689 125.993 116.71 125.94C116.729 125.893 116.727 125.836 116.705 125.815C116.683 125.793 116.668 125.832 116.671 125.901ZM118.085 126.564C118.031 126.617 118.03 126.869 118.082 127.005C118.155 127.195 118.239 127.112 118.239 126.85C118.239 126.601 118.172 126.476 118.085 126.564ZM116.826 127.797C116.848 128.05 116.925 128.921 116.996 129.732C117.116 131.096 117.419 133.263 117.501 133.34C117.52 133.358 117.517 133.225 117.495 133.044C117.472 132.864 117.411 132.318 117.359 131.831C117.135 129.737 116.853 127.406 116.821 127.373C116.801 127.354 116.804 127.545 116.826 127.797ZM137.354 129.275C137.267 129.417 137.399 129.867 137.558 129.971C137.81 130.137 137.901 130.054 137.849 129.709C137.824 129.545 137.766 129.365 137.719 129.309C137.623 129.193 137.417 129.174 137.354 129.275ZM95.941 129.355C95.9403 129.4 95.897 129.937 95.8447 130.549C95.7925 131.16 95.7594 131.67 95.7711 131.682C95.7829 131.693 95.8291 131.533 95.8737 131.324C95.9627 130.91 96.0506 129.273 95.9839 129.273C95.9611 129.273 95.9418 129.31 95.941 129.355ZM95.6548 132.335C95.5034 133.077 95.4071 134.684 95.5209 134.57C95.5611 134.53 95.7469 132.206 95.7128 132.171C95.7017 132.159 95.6756 132.233 95.6548 132.335ZM91.8273 133.634C91.5695 133.89 91.541 134.127 91.768 134.127C91.9755 134.127 92.1388 133.931 92.1388 133.683C92.1388 133.399 92.074 133.389 91.8273 133.634ZM117.518 133.501C117.518 133.557 117.487 133.602 117.448 133.602C117.354 133.602 116.874 134.652 116.795 135.033C116.72 135.389 116.79 135.724 116.946 135.754C117.105 135.785 117.637 135.261 117.829 134.884C118.048 134.454 118.071 133.88 117.879 133.667C117.686 133.454 117.518 133.377 117.518 133.501ZM109.183 134.733C108.212 135.875 108.188 135.907 108.534 135.605C108.974 135.219 109.553 134.547 109.875 134.045C110.11 133.68 109.904 133.885 109.183 134.733ZM166.243 135.471C166.328 135.561 166.412 135.635 166.43 135.635C166.448 135.635 166.394 135.561 166.309 135.471C166.224 135.381 166.14 135.307 166.122 135.307C166.104 135.307 166.159 135.381 166.243 135.471ZM107.661 135.772C107.065 136.087 106.672 136.71 106.811 137.12C106.866 137.284 106.902 137.305 107.097 137.287C107.593 137.24 108.083 136.88 108.317 136.389C108.408 136.2 108.403 136.172 108.232 135.912C108.133 135.76 108.02 135.636 107.981 135.638C107.942 135.64 107.798 135.7 107.661 135.772ZM139.911 135.924C139.853 136.311 139.917 136.501 140.099 136.475C140.212 136.459 140.245 136.403 140.262 136.204C140.282 135.958 140.141 135.635 140.014 135.635C139.981 135.635 139.935 135.765 139.911 135.924ZM166.778 136.106C166.971 136.328 167.409 136.841 167.752 137.246C168.094 137.65 168.611 138.257 168.899 138.595C169.187 138.933 170.292 140.228 171.353 141.473C175.137 145.908 175.133 145.904 173.978 144.391C172.673 142.681 170.918 140.623 167.868 137.226C167.115 136.387 166.483 135.701 166.463 135.701C166.443 135.701 166.585 135.883 166.778 136.106ZM94.4826 136.865C94.4656 137 94.412 137.206 94.3633 137.323C94.1903 137.738 94.5928 137.79 94.7885 137.377C94.9213 137.097 94.9219 136.854 94.7901 136.722C94.6199 136.552 94.5158 136.6 94.4826 136.865ZM32.7404 136.825C32.6408 136.925 32.6355 137.222 32.7275 137.554C32.8057 137.835 32.9394 137.867 33.339 137.7C33.5655 137.606 33.5766 137.586 33.5766 137.285C33.5766 137.014 33.5537 136.958 33.4185 136.896C33.1401 136.769 32.8282 136.736 32.7404 136.825ZM89.9261 137.649C89.7378 137.685 89.5812 137.909 89.5812 138.142C89.5812 138.46 90.0432 138.329 90.2186 137.961C90.3159 137.757 90.318 137.718 90.2346 137.666C90.1819 137.632 90.1239 137.608 90.1059 137.613C90.0878 137.617 90.0069 137.633 89.9261 137.649ZM116.534 138.16C116.534 138.291 116.567 138.324 116.698 138.324C116.829 138.324 116.862 138.291 116.862 138.16C116.862 138.029 116.829 137.996 116.698 137.996C116.567 137.996 116.534 138.029 116.534 138.16ZM96.6731 139.079C96.6724 139.115 96.7288 139.41 96.7986 139.734L96.9254 140.325L96.8905 139.875C96.8713 139.628 96.8148 139.333 96.765 139.22C96.7152 139.106 96.6739 139.042 96.6731 139.079ZM100.371 139.37C100.316 139.477 100.271 139.642 100.271 139.738C100.271 139.896 100.288 139.908 100.451 139.868C100.55 139.844 100.658 139.797 100.691 139.765C100.785 139.673 100.762 139.303 100.659 139.238C100.514 139.146 100.478 139.163 100.371 139.37ZM88.5337 140.145C88.4134 140.316 88.3651 140.414 88.4265 140.363C88.5736 140.241 88.8162 139.898 88.7806 139.863C88.7652 139.847 88.6541 139.975 88.5337 140.145ZM66.069 140.696C65.6952 141.082 65.6914 141.089 65.984 140.856C66.2367 140.655 66.5562 140.292 66.4804 140.292C66.4694 140.292 66.2843 140.474 66.069 140.696ZM97.002 140.948C97.002 141.038 97.0169 141.075 97.0351 141.03C97.0533 140.985 97.0533 140.911 97.0351 140.866C97.0169 140.821 97.002 140.858 97.002 140.948ZM92.4407 141.75C92.4174 141.867 92.3302 142.066 92.2469 142.193C92.0902 142.432 91.9421 142.804 91.9421 142.958C91.9421 143.01 92.0139 143.047 92.1172 143.047C92.2136 143.047 92.3432 143.093 92.4053 143.149C92.5086 143.242 92.5289 143.235 92.6478 143.067C92.8362 142.799 93.0323 142.394 93.1098 142.112C93.1751 141.875 93.1722 141.868 93.0262 141.904C92.9201 141.931 92.8338 141.898 92.7364 141.793C92.6602 141.712 92.5979 141.621 92.5979 141.591C92.5979 141.444 92.4776 141.566 92.4407 141.75ZM132.273 142.559C132.273 143.246 132.384 143.437 132.782 143.439C132.991 143.44 132.995 143.435 132.995 143.143C132.995 142.745 132.859 142.444 132.586 142.235C132.461 142.141 132.34 142.063 132.316 142.063C132.293 142.063 132.273 142.286 132.273 142.559ZM85.8028 143.929C84.8723 144.92 84.1012 145.721 84.0892 145.709C84.0772 145.697 84.1415 145.49 84.232 145.25C84.3226 145.009 84.3649 144.832 84.3261 144.856C84.2088 144.928 84.0099 145.427 84.0084 145.653C84.0073 145.822 84.0384 145.872 84.165 145.904C84.3287 145.945 85.746 145.628 85.8948 145.516C86.0472 145.403 86.4177 144.668 86.758 143.806C86.942 143.34 87.1917 142.772 87.3128 142.543C87.434 142.315 87.5245 142.128 87.5139 142.128C87.5033 142.128 86.7333 142.939 85.8028 143.929ZM97.1888 142.407C97.1895 142.674 97.3177 143.025 97.4607 143.152L97.6011 143.276L97.5627 142.892C97.5273 142.538 97.3871 142.26 97.2438 142.26C97.2133 142.26 97.1886 142.326 97.1888 142.407ZM91.9179 143.588L91.8 143.801L91.9351 143.637C92.055 143.492 92.1083 143.375 92.0546 143.375C92.0443 143.375 91.9829 143.471 91.9179 143.588ZM91.3635 143.767C91.1291 143.981 90.9584 144.326 90.9584 144.586C90.9584 144.745 90.9745 144.752 91.3519 144.752C91.6579 144.752 91.7745 144.723 91.8765 144.621C92.0279 144.469 92.0498 144.147 91.9164 144.036C91.8661 143.995 91.7888 143.873 91.7444 143.766C91.7001 143.659 91.6445 143.571 91.6209 143.571C91.5972 143.571 91.4814 143.659 91.3635 143.767ZM174.906 145.425C174.874 145.509 174.798 145.618 174.738 145.669C174.429 145.925 175.022 147.037 175.829 147.713L176.15 147.981L176.272 147.841C176.414 147.676 176.499 147.208 176.434 146.94C176.304 146.399 175.692 145.649 175.153 145.371C174.973 145.277 174.961 145.28 174.906 145.425ZM39.5263 146.31C39.1767 146.549 38.4952 147.122 38.6917 147.011C38.8142 146.942 39.8823 146.195 39.9673 146.119C40.1408 145.964 39.8431 146.093 39.5263 146.31ZM98.3192 146.278C98.1456 146.458 97.928 146.851 98.0019 146.851C98.0473 146.851 98.577 146.119 98.5506 146.092C98.5359 146.078 98.4317 146.161 98.3192 146.278ZM84.7682 146.758C84.694 146.951 84.7334 147.342 84.8488 147.558L84.9637 147.774L85.0504 147.286C85.0982 147.017 85.1172 146.765 85.0929 146.726C85.0265 146.618 84.8136 146.639 84.7682 146.758ZM176.703 148.818C176.759 148.927 176.82 149.015 176.838 149.015C176.856 149.015 176.825 148.927 176.769 148.818C176.713 148.71 176.652 148.622 176.634 148.622C176.616 148.622 176.647 148.71 176.703 148.818ZM177.071 149.458C177.516 150.242 178.978 152.658 179.046 152.721C179.121 152.789 179.097 152.747 178.459 151.672C178.245 151.311 177.813 150.58 177.498 150.048C177.184 149.516 176.911 149.081 176.892 149.081C176.873 149.081 176.954 149.251 177.071 149.458ZM85.1134 150.245C85.0319 150.349 85.0342 150.351 85.1382 150.27C85.2014 150.22 85.253 150.169 85.253 150.155C85.253 150.101 85.1992 150.136 85.1134 150.245ZM84.6844 150.993C84.348 151.644 84.295 151.785 84.4659 151.573C84.647 151.349 85.0189 150.596 84.9717 150.549C84.9507 150.528 84.8214 150.727 84.6844 150.993ZM50.8953 150.955C50.7848 151.048 50.628 151.218 50.547 151.332C50.4332 151.493 50.4927 151.459 50.8085 151.182C51.0334 150.984 51.2174 150.814 51.2174 150.804C51.2174 150.74 51.0671 150.811 50.8953 150.955ZM115.157 152.155C115.157 152.506 115.024 153.118 114.698 154.262C114.398 155.318 114.293 156.3 114.428 156.794C114.515 157.114 114.869 157.626 114.98 157.592C115.109 157.553 115.525 156.195 115.69 155.279C115.812 154.6 115.842 154.212 115.837 153.377C115.833 152.8 115.802 152.239 115.768 152.131C115.714 151.959 115.671 151.931 115.431 151.914L115.157 151.894V152.155ZM89.0629 154.562C88.8231 154.764 88.6972 155.155 88.7918 155.404C88.8275 155.497 88.8805 155.574 88.9098 155.574C89.0307 155.574 89.4501 154.829 89.4501 154.614C89.4501 154.343 89.3404 154.329 89.0629 154.562ZM104.38 160.012C104.312 160.08 104.329 160.415 104.403 160.461C104.483 160.51 104.664 160.341 104.664 160.216C104.664 160.053 104.475 159.918 104.38 160.012ZM99.9427 161.637C99.9427 162.017 100.042 162.067 100.265 161.801C100.439 161.592 100.441 161.582 100.325 161.466C100.259 161.4 100.146 161.346 100.074 161.346C99.9624 161.346 99.9427 161.39 99.9427 161.637ZM184.629 162.723C184.645 162.777 184.835 163.264 185.051 163.806C185.267 164.347 185.614 165.217 185.821 165.74C186.431 167.278 186.94 168.443 187.434 169.435C187.908 170.385 188.869 172.057 188.916 172.011C188.93 171.997 188.243 170.47 187.388 168.617C186.534 166.764 185.783 165.13 185.72 164.986C185.348 164.141 184.574 162.535 184.629 162.723ZM154.321 165.954C154.338 166.253 154.36 166.301 154.488 166.319C154.597 166.334 154.636 166.307 154.636 166.214C154.636 166.006 154.502 165.688 154.398 165.648C154.319 165.617 154.305 165.673 154.321 165.954ZM88.3447 166.708C88.2731 166.875 88.2748 166.879 88.367 166.761C88.4217 166.691 88.4664 166.61 88.4664 166.58C88.4664 166.481 88.4219 166.527 88.3447 166.708ZM87.6494 168.05C87.3413 168.68 87.0908 169.222 87.0927 169.255C87.0946 169.288 87.362 168.788 87.6868 168.144C88.0117 167.5 88.2622 166.957 88.2435 166.939C88.2248 166.92 87.9575 167.42 87.6494 168.05ZM92.2126 170.307C92.1344 170.511 92.0815 170.69 92.095 170.703C92.1085 170.717 92.1836 170.561 92.2618 170.356C92.3399 170.152 92.3929 169.974 92.3794 169.96C92.3658 169.946 92.2908 170.103 92.2126 170.307ZM91.9515 170.971C91.88 171.138 91.8816 171.142 91.9738 171.024C92.0285 170.954 92.0732 170.873 92.0732 170.844C92.0732 170.744 92.0288 170.791 91.9515 170.971ZM48.2166 174.2C48.05 174.467 48.1659 174.76 48.3709 174.59C48.479 174.5 48.474 174.127 48.3642 174.091C48.3278 174.08 48.2614 174.129 48.2166 174.2ZM52.4806 175.281C51.876 175.875 51.4043 176.362 51.4324 176.363C51.4605 176.365 51.9769 175.879 52.5801 175.284C53.1831 174.689 53.6548 174.202 53.6283 174.201C53.6017 174.201 53.0853 174.687 52.4806 175.281ZM22.9637 176.021C22.8735 176.196 22.8138 176.597 22.8601 176.718C22.8904 176.797 22.9857 176.825 23.2221 176.825H23.5429V176.497C23.5429 176.256 23.508 176.134 23.4118 176.038C23.25 175.876 23.0426 175.868 22.9637 176.021ZM50.5666 176.798C50.3178 177.007 50.0566 177.499 49.9974 177.869L49.9546 178.137H50.2646C50.5279 178.137 50.6073 178.104 50.7911 177.92C50.9101 177.801 51.0429 177.585 51.0862 177.441C51.1591 177.198 51.1521 177.159 50.9907 176.921C50.8948 176.78 50.807 176.655 50.7956 176.644C50.7842 176.632 50.6811 176.702 50.5666 176.798ZM35.7672 181.105L35.6423 181.252L35.7899 181.127C35.9285 181.01 35.9673 180.957 35.9148 180.957C35.9023 180.957 35.836 181.023 35.7672 181.105ZM33.8937 182.68C33.4422 183.121 32.9781 183.622 32.8623 183.794C32.5935 184.192 32.3994 184.62 32.3976 184.818C32.3962 184.966 32.4107 184.971 32.7076 184.927C33.1001 184.869 33.363 184.708 33.7264 184.304C34.1272 183.858 35.0933 182.347 35.0104 182.296C34.9734 182.273 34.8917 182.17 34.8289 182.067L34.7146 181.879L33.8937 182.68ZM44.5615 184.115C44.5385 184.174 44.5289 184.336 44.5403 184.475C44.5585 184.696 44.5838 184.731 44.7414 184.749C44.9028 184.768 44.9218 184.749 44.9218 184.572C44.9218 184.322 44.6267 183.947 44.5615 184.115ZM52.5379 187.767C52.533 187.815 52.4109 187.971 52.2666 188.114C52.0611 188.317 52.0043 188.423 52.0043 188.601C52.0043 188.888 52.1304 188.898 52.3566 188.629C52.5346 188.417 52.6248 188.092 52.5764 187.836C52.5601 187.75 52.5428 187.719 52.5379 187.767ZM79.7197 189.125C79.6564 189.29 79.675 189.333 79.7523 189.2C79.7906 189.134 79.8081 189.066 79.7912 189.049C79.7744 189.032 79.7421 189.067 79.7197 189.125ZM79.4574 189.847C79.3941 190.012 79.4127 190.054 79.49 189.921C79.5283 189.855 79.5458 189.788 79.5289 189.771C79.5121 189.754 79.4798 189.788 79.4574 189.847Z" fill="black"/>
</svg>
