<svg width="284" height="273" viewBox="0 0 284 273" fill="none" xmlns="http://www.w3.org/2000/svg">
<path fill-rule="evenodd" clip-rule="evenodd" d="M169.107 0.257187C168.133 1.27074 168.356 4.30586 169.447 4.88789C169.751 5.05027 169.906 4.94745 170.188 4.39756C170.372 4.03643 170.465 3.43131 170.625 1.52001C170.708 0.544529 170.656 0.38696 170.172 0.137505C169.751 -0.0797193 169.392 -0.0393882 169.107 0.257187ZM186.563 8.54904C186.286 9.10525 186.337 10.2333 186.709 11.7768C186.878 12.4765 187.034 13.1044 187.055 13.172C187.124 13.3908 187.549 12.9926 187.817 12.4581C188.051 11.9895 188.063 11.904 188.016 10.9502C187.989 10.3941 187.872 9.54677 187.756 9.06737L187.544 8.19564H187.142C186.771 8.19564 186.725 8.22354 186.563 8.54904ZM143.833 17.4077C143.465 17.9559 143.774 19.0182 144.418 19.4149C144.582 19.516 144.744 19.5988 144.776 19.5988C144.854 19.5988 144.854 18.2987 144.777 17.9155C144.715 17.607 144.326 17.1485 144.125 17.1485C144.06 17.1485 143.929 17.2651 143.833 17.4077ZM185.022 21.4774C184.251 22.2464 184.266 23.0056 185.108 25.7244C185.383 26.6128 185.518 27.2418 185.556 27.809C185.605 28.5467 185.626 28.617 185.789 28.5747C185.887 28.549 186.046 28.5984 186.141 28.6843C186.307 28.8342 186.318 28.8066 186.419 28.0128C186.86 24.5438 186.735 22.5641 186.004 21.46C185.704 21.0068 185.49 21.0106 185.022 21.4774ZM155.716 22.7472C155.703 22.8973 156.105 24.9215 156.157 24.9705C156.261 25.0677 156.083 23.8631 155.906 23.2741C155.805 22.9372 155.72 22.7001 155.716 22.7472ZM180.946 26.4079C180.345 26.8121 180.087 27.5571 179.913 29.3998C179.856 29.9959 179.786 30.562 179.756 30.6578C179.712 30.8014 179.739 30.8206 179.908 30.7671C180.044 30.7242 180.175 30.7576 180.294 30.8648C180.465 31.0193 180.477 31.0186 180.534 30.8498C180.566 30.752 180.821 30.1843 181.1 29.5883C181.833 28.0202 182.002 27.2845 181.797 26.549C181.678 26.1237 181.431 26.0826 180.946 26.4079ZM209.843 28.1061C209.708 28.2827 209.549 28.5652 209.49 28.734C209.424 28.9235 209.357 28.9989 209.314 28.931C209.163 28.6869 208.009 30.2294 207.577 31.2544C207.142 32.2831 207.026 34.0386 207.383 34.1751C207.688 34.2916 208.511 33.8976 208.999 33.4017C209.638 32.7523 209.88 32.0296 209.88 30.7682C209.88 29.6936 209.816 29.3493 209.596 29.2449C209.44 29.171 209.457 29.1096 209.797 28.515C210.205 27.803 210.227 27.6034 209.843 28.1061ZM177.266 29.2089C177.01 29.4643 176.942 29.8003 177.069 30.1844C177.199 30.5776 177.473 30.8412 177.706 30.7978C178.115 30.7216 178.383 29.4925 178.061 29.1709C177.857 28.9677 177.491 28.9851 177.266 29.2089ZM143.576 33.9862C143.312 34.2487 143.805 34.8971 144.267 34.8971C144.717 34.8971 144.854 34.6724 144.658 34.2552C144.517 33.9541 144.473 33.9293 144.072 33.9264C143.834 33.9247 143.61 33.9516 143.576 33.9862ZM217.426 37.1005C217.06 37.518 216.953 38.0486 217.195 38.2481C217.388 38.4079 218.094 37.3752 217.949 37.1454C217.807 36.9211 217.599 36.9032 217.426 37.1005ZM60.0945 38.4604C59.8562 38.5513 59.8316 38.5974 59.8828 38.8584C60.0423 39.6742 61.0074 40.382 62.3259 40.6501L62.964 40.7799V40.5134C62.964 40.3624 63.0325 40.2086 63.1219 40.1588C63.2615 40.0809 63.2397 40.0163 62.9336 39.6007C62.7433 39.3422 62.3507 38.968 62.0612 38.7693C61.6096 38.4592 61.4519 38.4044 60.9496 38.3828C60.6276 38.3689 60.2429 38.4038 60.0945 38.4604ZM145.311 44.3652C145.308 44.6859 145.587 45.1813 145.704 45.0641C145.821 44.9475 145.746 44.6984 145.499 44.384L145.313 44.1484L145.311 44.3652ZM83.1973 52.0568C83.4426 52.3728 85.2113 53.9271 86.0382 54.5531C86.4768 54.8851 86.7505 55.0716 86.6465 54.9676C86.4578 54.7788 83.5998 52.3066 83.2446 52.0249C83.0665 51.8835 83.0641 51.8851 83.1973 52.0568ZM206.146 54.4542C205.522 55.0161 204.93 55.5676 204.83 55.6797C204.65 55.8832 204.65 55.8845 205.037 56.215C205.883 56.9364 206.652 58.4266 206.909 59.8395C207.097 60.8752 207.072 61.5592 206.807 62.6492C206.542 63.743 206.506 64.5909 206.706 65.0686C206.781 65.246 207.032 65.7032 207.264 66.0846C207.762 66.903 207.897 67.2734 208.334 69.0271C208.801 70.9036 209.032 71.3732 209.644 71.6931C209.968 71.8626 211.073 71.8846 211.367 71.7275C211.534 71.6387 211.803 71.9779 214.143 75.2195C215.568 77.1941 216.77 78.8702 216.814 78.9441C216.866 79.0314 216.839 79.1176 216.739 79.1907C216.598 79.2936 216.598 79.3379 216.734 79.7226C217.065 80.6585 217.766 81.5509 218.767 82.3108C219.053 82.5278 219.95 83.1304 220.761 83.6497L222.235 84.5938L222.48 84.3836C222.615 84.2681 222.779 84.1556 222.845 84.1335C223.036 84.0702 222.708 83.3333 222.255 82.8072C221.811 82.2918 221.168 81.84 219.949 81.1864C218.415 80.3642 217.71 79.8074 217.264 79.0646C217.155 78.8832 217.066 78.7878 217.066 78.8525C217.065 79.0966 216.889 78.958 216.826 78.6641C216.72 78.1683 215.937 76.241 215.572 75.5777C214.564 73.7479 213.361 72.4456 211.918 71.6223C211.499 71.3836 211.398 71.2817 211.441 71.1441C211.479 71.0248 211.367 70.8098 211.088 70.4682C210.558 69.8197 209.868 68.4825 209.503 67.3968C208.641 64.8321 208.244 61.6224 208.118 56.1877L208.054 53.4311L207.667 53.4319C207.308 53.4327 207.198 53.5069 206.146 54.4542ZM220.223 54.3646C220.01 54.4611 219.745 54.6674 219.633 54.823C219.46 55.0661 219.051 55.9138 219.051 56.0306C219.051 56.0522 219.21 56.0689 219.405 56.0678C219.834 56.0653 220.44 55.8004 220.725 55.4906C220.93 55.2692 221.225 54.574 221.225 54.3146C221.225 54.1272 220.688 54.154 220.223 54.3646ZM0.165446 55.2562C0.055968 55.3407 0 55.5136 0 55.7675C0 56.1391 0.0227843 56.167 0.73269 56.6627C3.11785 58.328 6.27088 59.8673 10.9019 61.6273C11.7242 61.9398 12.4115 62.1955 12.4293 62.1955C12.4471 62.1955 12.4391 62.1093 12.4114 62.0039C12.3825 61.8938 12.4301 61.7365 12.5234 61.6336C12.679 61.4622 12.6699 61.4448 12.3025 61.2136C10.2469 59.9201 5.76187 57.5584 2.2893 55.9408C0.542193 55.127 0.394613 55.0794 0.165446 55.2562ZM87.5446 55.7188C87.5446 55.7529 89.8131 57.7441 90.5683 58.373C90.7522 58.5262 90.6684 58.4072 90.3808 58.1068C89.9195 57.6249 87.5446 55.6254 87.5446 55.7188ZM186.91 56.5349C186.702 56.9221 186.877 57.5777 187.188 57.5777C187.27 57.5777 187.355 56.7774 187.302 56.5074C187.26 56.2961 187.03 56.3122 186.91 56.5349ZM175.722 58.0254C175.527 58.6344 175.369 59.2097 175.37 59.3038C175.377 59.7151 175.824 60.2106 176.192 60.2144C176.715 60.2197 176.874 58.278 176.426 57.3657C176.306 57.1195 176.178 56.918 176.142 56.918C176.106 56.918 175.917 57.4163 175.722 58.0254ZM133.368 57.6484C133.445 57.8582 133.68 58.2087 133.68 58.1124C133.68 58.0131 133.402 57.4835 133.35 57.4835C133.327 57.4835 133.335 57.5577 133.368 57.6484ZM108.911 57.8018C108.911 57.8213 108.985 57.8956 109.076 57.9668C109.226 58.0839 109.229 58.0806 109.112 57.9311C108.988 57.7741 108.911 57.7243 108.911 57.8018ZM109.261 58.261C110.414 59.7659 111.605 61.2686 111.721 61.3646C111.804 61.4328 111.286 60.736 110.571 59.8159C109.856 58.8959 109.248 58.1432 109.221 58.1432C109.194 58.1432 109.212 58.1962 109.261 58.261ZM133.964 58.8029C134.122 59.1139 134.272 59.3683 134.298 59.3683C134.324 59.3683 134.216 59.1139 134.059 58.8029C133.901 58.4919 133.751 58.2374 133.725 58.2374C133.699 58.2374 133.807 58.4919 133.964 58.8029ZM32.1398 58.5275C31.9836 58.8186 32.0607 58.9197 32.8187 59.4176C34.2765 60.3749 35.7244 60.9354 39.6598 62.0661C41.0117 62.4545 42.5007 62.9011 42.9687 63.0586C44.0958 63.4377 46.1489 64.4469 46.794 64.939C47.2742 65.3052 47.3568 65.3345 47.9758 65.3571C48.3417 65.3705 49.0647 65.4916 49.5823 65.6262C50.7446 65.9284 50.7895 65.9292 50.7526 65.6484C50.7365 65.526 50.7859 65.3508 50.8623 65.259C50.9888 65.1071 50.9631 65.0587 50.5775 64.7221C50.0482 64.26 48.6241 63.5639 47.0812 63.0132C46.4313 62.7813 44.9914 62.2042 43.8816 61.7309C38.4848 59.4295 34.9667 58.3317 32.9876 58.3317C32.3324 58.3317 32.2326 58.3547 32.1398 58.5275ZM195.213 60.2105C194.88 60.483 195.067 60.7262 195.638 60.7635L196.077 60.7923V60.4101C196.077 60.0386 196.068 60.028 195.757 60.028C195.58 60.028 195.337 60.1096 195.213 60.2105ZM73.0035 60.3274C72.7794 60.3773 72.5744 60.4747 72.5478 60.5438C72.5212 60.6128 72.5874 60.8413 72.695 61.0514C73.0591 61.763 74.1779 62.1955 75.6541 62.1955H76.4869L76.4261 61.9364C76.1169 60.6204 74.6928 59.9509 73.0035 60.3274ZM204.515 60.8443C204.45 60.8705 204.397 61.0132 204.397 61.1614C204.397 61.5152 204.703 61.7243 205.221 61.7243C205.608 61.7243 205.626 61.7117 205.626 61.4416C205.626 60.938 205.051 60.6288 204.515 60.8443ZM135.825 62.2592C136.23 63.0459 136.577 63.6744 136.596 63.6561C136.639 63.6129 135.403 61.2173 135.223 60.9967C135.148 60.9045 135.419 61.4726 135.825 62.2592ZM111.842 61.5715C111.842 61.591 111.916 61.6652 112.007 61.7364C112.157 61.8535 112.16 61.8502 112.043 61.7008C111.919 61.5438 111.842 61.4939 111.842 61.5715ZM53.726 62.8058C53.2278 63.0217 53.211 63.7034 53.7038 63.7034C53.9415 63.7034 54.2663 63.2607 54.2663 62.9367C54.2663 62.6343 54.1737 62.6118 53.726 62.8058ZM51.5719 65.8462C51.6913 65.97 56.1793 68.3305 56.2193 68.2905C56.2357 68.2743 55.8986 68.0669 55.4704 67.8296C54.248 67.1524 51.4672 65.7376 51.5719 65.8462ZM100.591 66.5777C100.591 66.7662 100.638 66.8133 100.828 66.8133C101.017 66.8133 101.064 66.7662 101.064 66.5777C101.064 66.3892 101.017 66.3421 100.828 66.3421C100.638 66.3421 100.591 66.3892 100.591 66.5777ZM158.984 67.356C158.913 67.4706 159.075 68.2101 159.205 68.3666C159.27 68.4453 159.404 68.5096 159.502 68.5096C159.786 68.5096 159.748 67.8155 159.447 67.5159C159.21 67.2795 159.063 67.2288 158.984 67.356ZM56.5353 68.4559C56.5353 68.4818 56.6204 68.5484 56.7244 68.6039C56.8284 68.6594 56.9134 68.6835 56.9134 68.6576C56.9134 68.6317 56.8284 68.5651 56.7244 68.5096C56.6204 68.4541 56.5353 68.43 56.5353 68.4559ZM160.823 72.2793C160.934 72.5643 161.088 72.9801 161.166 73.2032C161.244 73.4264 161.324 73.5928 161.343 73.5732C161.403 73.5137 160.909 72.1269 160.76 71.9376C160.673 71.8263 160.696 71.9526 160.823 72.2793ZM118.94 72.149C119.066 72.3107 119.187 72.426 119.211 72.4054C119.234 72.3847 119.131 72.2525 118.982 72.1115L118.712 71.8552L118.94 72.149ZM89.6382 72.1359C89.8238 72.3209 90.8535 72.9144 90.8535 72.8364C90.8535 72.484 90.3242 72.0908 89.8498 72.0908C89.7086 72.0908 89.6133 72.111 89.6382 72.1359ZM127.965 74.4704C128.061 74.9179 128.266 75.2744 128.496 75.3971C128.681 75.4959 128.692 75.4864 128.63 75.2821C128.593 75.1596 128.527 74.9204 128.484 74.7504C128.389 74.3806 128.224 74.1641 128.036 74.1641C127.93 74.1641 127.914 74.2348 127.965 74.4704ZM135.571 75.9547C135.627 76.0583 135.694 76.1431 135.72 76.1431C135.746 76.1431 135.721 76.0583 135.666 75.9547C135.61 75.851 135.543 75.7662 135.517 75.7662C135.491 75.7662 135.516 75.851 135.571 75.9547ZM135.949 76.6143C136.005 76.718 136.072 76.8028 136.098 76.8028C136.124 76.8028 136.1 76.718 136.044 76.6143C135.988 76.5107 135.922 76.4259 135.896 76.4259C135.87 76.4259 135.894 76.5107 135.949 76.6143ZM183.088 76.9519C182.968 77.263 183.032 77.7175 183.22 77.8866C183.404 78.0529 183.409 78.0512 183.409 77.8178C183.409 77.6664 183.496 77.5217 183.645 77.4241C183.792 77.3281 183.881 77.1813 183.881 77.0363C183.881 76.8278 183.842 76.8028 183.513 76.8028C183.265 76.8028 183.127 76.8513 183.088 76.9519ZM72.9854 77.4981C72.9854 77.5176 73.0598 77.5919 73.1508 77.663C73.3007 77.7802 73.3041 77.7769 73.1865 77.6274C73.063 77.4704 72.9854 77.4206 72.9854 77.4981ZM137.452 79.4207C138.047 80.606 139.137 82.3712 139.356 82.5063C139.405 82.5367 139.08 81.9338 138.634 81.1665C138.187 80.3992 137.609 79.4004 137.348 78.9468C137.087 78.4933 136.857 78.1222 136.836 78.1222C136.816 78.1222 137.093 78.7065 137.452 79.4207ZM140.463 82.7012C140.576 82.8614 140.742 83.0522 140.834 83.1253C140.958 83.2248 140.948 83.185 140.795 82.9672C140.683 82.8071 140.516 82.6162 140.425 82.5431C140.3 82.4436 140.31 82.4835 140.463 82.7012ZM140.487 84.0593C140.487 84.1112 140.532 84.1536 140.587 84.1536C140.642 84.1536 140.771 84.3426 140.874 84.5738C141.071 85.0196 141.188 85.1413 141.333 85.0524C141.48 84.9616 141.25 84.4584 140.944 84.2016C140.647 83.9523 140.487 83.9026 140.487 84.0593ZM181.757 84.6201C181.575 84.97 181.575 85.1359 181.754 85.2845C181.872 85.3817 181.896 85.3712 181.896 85.2227C181.896 85.1243 181.964 84.9475 182.046 84.8299C182.198 84.6135 182.17 84.3421 181.996 84.3421C181.944 84.3421 181.836 84.4672 181.757 84.6201ZM224.959 84.481C225.635 84.5511 227.231 84.6979 228.505 84.8072C229.779 84.9167 230.991 85.024 231.199 85.0459L231.577 85.0856L231.246 84.9374C230.468 84.5887 229.026 84.4282 226.33 84.3901L223.73 84.3535L224.959 84.481ZM234.733 86.4945C235.012 86.8172 235.324 87.1253 235.424 87.179C235.631 87.2893 237.36 87.1893 237.232 87.0745C237.19 87.0362 236.581 86.7922 235.879 86.5321C235.177 86.2721 234.517 86.0252 234.413 85.9835C234.298 85.9372 234.422 86.1357 234.733 86.4945ZM132.522 86.1402C132.325 86.255 132.295 86.8607 132.475 87.1063C132.6 87.2758 132.576 87.2797 134.135 86.8295C134.318 86.7769 134.185 86.62 133.698 86.3119C133.255 86.0321 132.818 85.9683 132.522 86.1402ZM131.128 86.9089C131.128 87.0901 131.718 87.6405 131.912 87.6405C132.098 87.6405 132.12 87.5364 131.968 87.3845C131.91 87.3267 131.813 87.1804 131.753 87.0594C131.629 86.8111 131.128 86.6903 131.128 86.9089ZM141.247 87.5934C141.247 87.9929 141.273 88.1173 141.338 88.0174C141.389 87.9397 141.43 87.7489 141.43 87.5934C141.43 87.4379 141.389 87.247 141.338 87.1693C141.273 87.0694 141.247 87.1939 141.247 87.5934ZM227.995 87.9019C227.963 87.9913 227.915 88.1103 227.888 88.1662C227.86 88.222 227.938 88.3131 228.06 88.3686C228.244 88.4522 228.302 88.4381 228.397 88.2867C228.525 88.0824 228.482 87.9681 228.226 87.8317C228.093 87.7606 228.039 87.7769 227.995 87.9019ZM143.78 87.9825C143.833 88.0795 143.946 88.2436 144.03 88.3473C144.173 88.5222 144.173 88.5142 144.038 88.2354C143.958 88.0703 143.845 87.9062 143.787 87.8707C143.713 87.8245 143.71 87.8563 143.78 87.9825ZM62.2443 90.6326C62.2158 90.7234 62.1548 90.8917 62.1088 91.0068C61.9898 91.3047 62.2264 91.4138 62.6664 91.2637C62.9674 91.1611 63.0151 91.1029 63.0406 90.8069C63.0699 90.468 63.0697 90.4677 62.6832 90.4677C62.3976 90.4677 62.2827 90.5109 62.2443 90.6326ZM194.655 91.6067C194.597 91.7148 194.567 91.821 194.589 91.8427C194.611 91.8643 194.677 91.776 194.736 91.6461C194.867 91.3611 194.803 91.3304 194.655 91.6067ZM128.711 92.8994C128.968 93.1664 129.198 93.3656 129.221 93.3421C129.286 93.2778 129.063 93.0389 128.632 92.7096C128.247 92.4159 128.247 92.4172 128.711 92.8994ZM224.095 92.7382C223.808 92.8211 223.21 93.3918 223.21 93.5833C223.21 93.8347 224.229 93.9517 224.671 93.751C224.876 93.6581 224.912 93.5796 224.912 93.2304C224.912 92.8755 224.879 92.8064 224.67 92.7271C224.536 92.6766 224.419 92.6391 224.41 92.6437C224.4 92.6484 224.258 92.6909 224.095 92.7382ZM213.971 93.1064C213.662 93.7294 213.692 94.2789 214.085 95.2043C214.137 95.3263 214.12 95.3566 214.02 95.3186C213.675 95.1864 213.506 96.5034 213.845 96.6843C214.481 97.0235 215.364 96.4293 215.364 95.6622C215.364 95.2875 215.023 95.0495 214.563 95.103L214.234 95.1413L214.208 93.9118L214.182 92.6824L213.971 93.1064ZM193.013 93.7804C192.236 94.6241 191.077 96.327 190.457 97.5358C189.979 98.4696 189.526 98.9188 189.175 98.8078C189.037 98.7642 188.986 98.843 188.889 99.2447C188.516 100.794 187.802 101.962 185.958 104.038C185.186 104.908 185.027 105.041 184.646 105.137C183.674 105.38 181.752 105.237 179.99 104.788C179.06 104.552 178.944 104.556 178.493 104.839C177.972 105.167 175.811 106.244 175.184 106.488C174.207 106.869 173.341 107.164 172.401 107.437L171.462 107.71L171.172 107.492C170.547 107.022 169.49 106.477 168.646 106.191C167.863 105.925 167.638 105.89 166.675 105.883C165.494 105.875 164.907 106.013 164.264 106.448C164.078 106.574 163.878 106.677 163.82 106.677C163.762 106.677 163.49 106.465 163.215 106.206C162.786 105.801 162.662 105.735 162.335 105.735C161.822 105.735 161.737 105.921 161.684 107.148L161.642 108.138L161.142 108.798C160.868 109.16 160.333 110.008 159.955 110.682C158.954 112.464 158.512 113.103 157.862 113.702C157.347 114.177 157.249 114.23 156.973 114.186C156.691 114.14 156.648 114.166 156.493 114.479C156.354 114.759 156.219 114.862 155.759 115.038C154.735 115.429 153.365 115.307 150.859 114.604C149.956 114.35 149.549 114.263 148.369 114.072C148.097 114.027 148.069 114.047 148.03 114.314C147.974 114.696 148.199 114.87 149.239 115.245C150.29 115.624 150.532 115.754 150.82 116.095C151.139 116.474 151.218 116.867 151.043 117.205C150.764 117.743 150.311 117.803 148.712 117.517C147.914 117.374 147.345 117.45 145.836 117.904C144.245 118.383 143.305 118.471 142.768 118.192C142.402 118.001 142.386 118.001 142.332 118.17C142.232 118.486 142.022 118.566 141.082 118.65C140.573 118.695 139.798 118.84 139.36 118.971C138.843 119.127 138.329 119.213 137.894 119.215L137.226 119.219L136.871 119.763C136.656 120.093 136.517 120.422 136.517 120.598V120.889L136.96 120.756C137.623 120.557 139.443 120.268 140.724 120.158C144.178 119.863 148.545 120.29 152.208 121.284C152.804 121.445 153.298 121.586 153.305 121.596C153.312 121.606 153.415 122.012 153.534 122.498C153.893 123.964 153.833 124.879 153.366 125.074C153.205 125.141 152.08 125.202 150.363 125.235C147.982 125.282 147.583 125.311 147.368 125.452C147.013 125.684 146.961 125.943 147.189 126.33C147.296 126.509 147.36 126.716 147.332 126.789C147.304 126.862 147.074 127.01 146.821 127.119C146.126 127.417 145.272 127.385 144.269 127.024C141.969 126.198 141.565 126.09 141.656 126.327C141.722 126.497 141.609 126.511 141.449 126.352C141.113 126.016 141.625 126.955 142.287 127.886C142.695 128.459 143.099 129.14 143.185 129.398C143.353 129.903 143.402 129.917 143.985 129.623C144.924 129.151 146.486 128.964 147.158 129.244C147.542 129.404 147.539 129.488 147.113 130.52C146.868 131.112 146.63 131.484 145.22 133.472C144.859 133.981 144.447 134.694 144.305 135.057C144.087 135.608 143.994 135.736 143.731 135.846C143.558 135.918 143.193 136.185 142.921 136.439C142.195 137.117 141.539 137.588 141.323 137.588C141.208 137.588 141.153 137.634 141.182 137.706C141.709 138.976 141.849 140.631 141.471 141.139C141.362 141.285 141.14 141.449 140.977 141.503L140.681 141.601L141.215 142.396C142.241 143.924 142.686 145.215 142.475 146.056C142.327 146.65 142.137 146.918 141.865 146.918C141.69 146.918 141.65 146.958 141.687 147.097C141.719 147.221 141.672 147.296 141.536 147.339C141.301 147.413 141.276 147.724 141.47 148.17C141.542 148.336 141.904 148.808 142.275 149.218C142.646 149.628 142.98 150.073 143.018 150.207C143.164 150.724 143.084 151.847 142.872 152.254C142.669 152.645 141.876 153.42 141.679 153.421C141.622 153.421 141.702 153.505 141.858 153.608C142.014 153.711 142.21 153.844 142.293 153.904C142.542 154.085 142.892 153.93 143.07 153.559C143.211 153.263 143.269 153.224 143.529 153.25C143.806 153.277 143.836 153.318 143.985 153.863C144.234 154.774 144.328 154.869 144.997 154.894C145.811 154.923 146.11 155.084 147.101 156.023C147.678 156.571 148.044 156.85 148.159 156.831C148.304 156.806 148.334 156.863 148.334 157.154C148.334 157.657 148.641 158.224 149.212 158.773C149.828 159.367 150.32 159.772 150.32 159.686C150.32 159.65 149.957 159.095 149.515 158.452C149.072 157.81 148.722 157.284 148.738 157.284C148.754 157.284 149.255 157.492 149.85 157.746C153.673 159.374 156.19 160.674 157.883 161.898C158.673 162.468 158.695 162.477 159.177 162.426C159.446 162.397 160.212 162.18 160.879 161.944C162.946 161.213 163.543 161.054 164.218 161.054C164.77 161.054 164.936 161.1 165.565 161.431C166.348 161.842 166.699 161.897 166.906 161.643C167.543 160.861 167.553 160.852 167.778 160.908C167.929 160.946 168.021 160.918 168.057 160.824C168.086 160.747 168.192 160.658 168.291 160.627C168.411 160.589 168.471 160.483 168.471 160.312C168.471 160.17 168.534 159.971 168.61 159.87C168.687 159.77 168.75 159.592 168.752 159.475C168.755 159.247 168.776 159.24 169.413 159.226C169.833 159.216 169.834 159.215 170.152 158.604C170.327 158.267 170.605 157.848 170.771 157.673C171.207 157.21 172.192 156.595 173.209 156.149C173.697 155.935 174.417 155.594 174.809 155.391C175.201 155.189 175.548 155.023 175.58 155.023C175.678 155.023 175.846 155.597 175.846 155.932C175.846 156.16 175.888 156.248 175.998 156.248C176.098 156.248 176.136 156.305 176.107 156.413C176.083 156.503 174.82 159.879 173.301 163.914C171.782 167.95 170.554 171.266 170.572 171.284C170.629 171.34 174.218 164.157 174.577 163.269C175.501 160.98 176.056 158.776 176.153 157.002C176.169 156.718 176.216 156.586 176.297 156.602C176.524 156.648 176.622 156.136 176.559 155.244C176.511 154.573 176.53 154.304 176.642 154.035L176.787 153.689L177.309 153.743C177.596 153.773 178.074 153.823 178.371 153.854C179.158 153.936 180.068 154.234 180.702 154.618C181.252 154.951 181.261 154.953 181.789 154.841C182.082 154.779 182.782 154.51 183.344 154.243C184.192 153.841 184.358 153.728 184.319 153.58C184.283 153.443 184.313 153.412 184.449 153.448C184.8 153.539 185.235 152.841 185.716 151.412C186.39 149.407 186.814 148.897 187.805 148.897C188.352 148.897 188.688 149.069 189.116 149.567C189.815 150.382 189.856 150.873 189.412 153.174C188.974 155.449 188.392 157.146 187.989 157.322C187.797 157.407 187.798 157.416 188.091 158.171C188.254 158.59 188.527 159.294 188.697 159.735C189.163 160.944 189.725 161.964 190.222 162.502C190.654 162.971 190.674 162.981 190.853 162.819C190.954 162.728 191.14 162.664 191.265 162.678C191.483 162.702 191.492 162.68 191.492 162.124C191.491 161.592 191.432 161.428 190.748 160.056C189.83 158.215 189.734 157.95 189.721 157.22C189.695 155.748 190.889 154.911 192.163 155.508C192.535 155.682 192.767 155.929 193.108 156.512C193.117 156.527 193.262 156.415 193.43 156.262C193.715 156.002 193.728 155.964 193.629 155.666C193.565 155.472 193.173 155.001 192.62 154.455C192.122 153.964 191.659 153.456 191.591 153.326C191.523 153.197 191.416 152.782 191.352 152.404C191.213 151.57 191.333 150.7 191.689 149.964C191.929 149.467 192.479 148.897 192.718 148.897C192.79 148.897 193.076 149.157 193.353 149.475C194.389 150.667 194.557 150.781 195.085 150.649C195.278 150.6 195.321 150.532 195.321 150.273C195.321 150.099 195.255 149.902 195.174 149.835C194.929 149.632 194.556 148.93 194.414 148.403C194.153 147.437 194.153 146.432 194.413 144.062C194.751 140.981 194.743 139.881 194.375 138.613C194.074 137.578 194.074 137.333 194.378 136.74C194.747 136.021 195.334 135.665 196.881 135.224C198.065 134.886 198.476 134.698 199.1 134.206C199.343 134.015 199.921 133.717 200.386 133.544C202.544 132.739 203.236 132.261 203.683 131.267C203.91 130.764 203.927 130.661 203.826 130.417C203.667 130.034 203.3 129.749 202.314 129.241C201.39 128.766 200.962 128.359 200.81 127.813C200.52 126.772 200.676 126.663 203.753 125.763C204.586 125.519 205.197 125.148 205.552 124.671C205.725 124.438 205.997 123.225 205.899 123.127C205.872 123.101 205.641 123.159 205.384 123.256C205.127 123.352 204.307 123.564 203.562 123.725C202.818 123.886 201.978 124.127 201.697 124.259C201.173 124.507 200.651 125.031 200.554 125.407C200.486 125.674 200.415 125.674 200.163 125.406C199.866 125.091 199.696 124.618 199.541 123.679C199.465 123.217 199.327 122.67 199.235 122.462C199.045 122.035 199.053 121.904 199.286 121.569C199.701 120.974 199.616 120.787 198.267 119.35C197.752 118.802 197.215 118.141 197.073 117.881C196.81 117.399 196.797 117.186 196.98 116.313C197.032 116.064 196.995 115.942 196.786 115.669C196.443 115.22 196.084 115.015 195.414 114.883C195.016 114.805 194.843 114.725 194.803 114.599C194.694 114.259 193.963 113.216 193.147 112.237C191.684 110.483 191.28 109.676 191.19 108.326C191.107 107.085 191.489 105.294 193.088 99.4206C193.685 97.2271 194.19 94.9846 194.337 93.8692C194.403 93.3652 194.401 93.3604 194.177 93.4195C194.011 93.4631 193.91 93.4263 193.801 93.2835C193.655 93.0918 193.638 93.102 193.013 93.7804ZM241.93 93.5775C241.533 93.6821 241.223 93.7132 241.055 93.6652L240.795 93.5908V94.1997C240.795 94.6853 240.827 94.8212 240.955 94.8701C241.043 94.9038 241.592 94.8339 242.175 94.7147C242.758 94.5955 243.278 94.5246 243.331 94.557C243.384 94.5895 243.455 94.4892 243.489 94.3335C243.523 94.1781 243.592 94.0261 243.641 93.9958C243.69 93.9654 243.597 93.8165 243.435 93.6648C243.092 93.3458 242.859 93.3323 241.93 93.5775ZM12.4479 95.1484C12.4132 95.1828 12.3848 95.2889 12.3848 95.384C12.3848 95.5924 12.6894 95.6172 12.852 95.4219C12.9417 95.3143 12.9262 95.2668 12.7753 95.1863C12.5535 95.068 12.5311 95.0653 12.4479 95.1484ZM247.035 95.5698C246.749 95.6215 246.308 95.6412 246.054 95.6134L245.594 95.5629L245.654 95.8661C245.745 96.3322 246.006 96.6143 246.632 96.9232C247.33 97.2679 247.588 97.4892 247.758 97.8892C247.901 98.227 248.026 98.2576 248.482 98.0675C249.061 97.8266 249.776 96.9086 249.776 96.4072C249.776 96.3007 249.631 96.0552 249.453 95.8616C249.132 95.5128 249.122 95.5094 248.342 95.4926C247.909 95.4834 247.321 95.5181 247.035 95.5698ZM143.04 99.7839C143.04 100.021 143.178 100.174 143.48 100.274C143.886 100.407 143.944 100.358 143.781 100.017C143.686 99.8186 143.575 99.7429 143.347 99.7209C143.178 99.7046 143.04 99.733 143.04 99.7839ZM172.632 100.151C172.632 100.335 172.701 100.442 172.868 100.519C173.088 100.621 173.104 100.611 173.104 100.373C173.104 100.099 172.953 99.8918 172.754 99.8918C172.683 99.8918 172.631 100.001 172.632 100.151ZM147.786 103.073C147.86 103.841 148.205 104.332 148.572 104.192C148.731 104.132 148.729 104.115 148.548 103.918C148.442 103.803 148.325 103.56 148.288 103.379C148.209 102.991 147.995 102.625 147.847 102.625C147.78 102.625 147.758 102.783 147.786 103.073ZM223.643 102.773C223.478 102.937 223.447 103.096 223.581 103.096C223.77 103.096 223.977 102.971 224.067 102.802C224.145 102.656 224.129 102.625 223.977 102.625C223.875 102.625 223.724 102.691 223.643 102.773ZM260.499 104.543C260.15 104.702 259.758 105.167 259.874 105.283C260.03 105.438 261.441 105.674 261.803 105.605C262.163 105.537 262.764 105.04 262.703 104.859C262.601 104.554 260.985 104.322 260.499 104.543ZM271.875 107.722C271.379 107.838 270.616 108.233 270.039 108.672C269.59 109.014 268.787 110.015 268.884 110.111C268.906 110.134 269.588 110.051 270.397 109.927C272.491 109.605 273.206 109.34 273.825 108.656C274.282 108.152 274.26 107.902 273.742 107.747C273.301 107.615 272.382 107.603 271.875 107.722ZM132.091 108.35C132.113 108.465 132.229 108.524 132.476 108.544C132.907 108.58 132.94 108.43 132.532 108.288C132.126 108.147 132.054 108.158 132.091 108.35ZM211.679 109.785C211.404 110.059 211.345 110.407 211.526 110.683C211.849 111.174 212.239 110.862 212.383 109.999C212.449 109.6 212.448 109.599 212.157 109.599C211.993 109.599 211.784 109.68 211.679 109.785ZM232.381 110.273C232.199 110.324 231.827 110.429 231.554 110.507L231.057 110.649V111.477C231.057 112.166 231.09 112.347 231.248 112.548C231.353 112.681 231.399 112.814 231.351 112.843C231.231 112.918 231.326 113.231 231.524 113.41C231.675 113.546 231.697 113.539 231.796 113.322C231.858 113.187 231.983 113.085 232.088 113.085C232.19 113.085 232.286 113.014 232.303 112.926C232.328 112.798 232.439 112.767 232.854 112.769C233.276 112.772 233.298 112.766 232.969 112.735C232.747 112.715 232.59 112.658 232.62 112.609C232.651 112.56 232.609 112.426 232.528 112.311C232.259 111.928 232.396 111.163 232.793 110.834C232.955 110.701 232.973 110.16 232.816 110.172C232.758 110.177 232.563 110.223 232.381 110.273ZM137.57 110.68C137.692 110.801 142.742 112.763 144.093 113.214C145.599 113.716 147.649 114.271 147.723 114.197C147.743 114.177 146.07 113.572 144.005 112.853C141.941 112.134 139.678 111.341 138.979 111.09C137.795 110.667 137.459 110.569 137.57 110.68ZM212.527 111.303C212.293 111.409 212.01 111.581 211.897 111.687C211.72 111.852 211.706 111.919 211.791 112.175C211.926 112.579 212.017 112.655 212.638 112.882C213.337 113.137 214.539 113.336 216.115 113.458C217.977 113.602 218.011 113.6 218.011 113.333C218.011 113.209 218.078 113.053 218.161 112.984C218.297 112.871 218.295 112.848 218.137 112.729C217.744 112.433 215.925 111.583 215.193 111.353C214.189 111.037 213.158 111.018 212.527 111.303ZM79.6977 111.911C80.6226 112.094 81.1702 112.168 81.1024 112.099C81.0357 112.032 79.4516 111.76 79.225 111.778C79.147 111.784 79.3598 111.843 79.6977 111.911ZM38.7695 111.898C38.7912 111.918 39.5534 112.107 40.4634 112.316C42.4418 112.772 44.3071 113.092 46.7976 113.405C50.7497 113.9 50.101 113.713 44.7177 112.804C39.6014 111.94 38.6637 111.797 38.7695 111.898ZM206.193 112.139L205.673 112.312L207.422 112.321C208.384 112.326 209.597 112.301 210.117 112.265L211.062 112.2L210.117 112.082C208.664 111.902 206.825 111.929 206.193 112.139ZM282.604 112.42C282.21 112.518 281.518 112.971 281.589 113.086C281.661 113.201 282.274 113.367 282.629 113.367C283.293 113.367 284 113.008 284 112.671C284 112.599 283.942 112.518 283.87 112.491C283.596 112.386 282.899 112.347 282.604 112.42ZM218.99 113.083C218.958 113.24 218.856 113.387 218.756 113.419C218.539 113.487 218.522 113.704 218.727 113.782C218.978 113.878 219.051 113.848 219.051 113.646C219.051 113.54 219.166 113.347 219.307 113.217C219.519 113.021 219.539 112.965 219.425 112.893C219.18 112.738 219.047 112.796 218.99 113.083ZM220.918 113.06L219.807 113.091V113.361C219.807 113.509 219.747 113.654 219.674 113.682C219.571 113.721 219.622 113.886 219.905 114.424C220.105 114.804 220.374 115.214 220.503 115.335C220.738 115.555 220.74 115.555 221.242 115.394C221.909 115.179 223.065 114.563 223.569 114.151C223.935 113.853 223.96 113.808 223.815 113.702C223.715 113.63 223.683 113.539 223.731 113.462C223.781 113.381 223.77 113.362 223.698 113.406C223.626 113.451 223.597 113.4 223.612 113.256C223.635 113.044 223.614 113.038 222.832 113.033C222.39 113.031 221.529 113.043 220.918 113.06ZM228.053 113.421C227.745 113.636 227.775 113.859 228.103 113.783C228.427 113.708 228.788 113.488 228.788 113.366C228.788 113.221 228.285 113.258 228.053 113.421ZM130.466 121.035C130.466 121.194 130.415 121.284 130.324 121.284C129.944 121.284 130.283 121.613 131.437 122.362C132.047 122.759 132.315 122.997 132.453 123.267C132.677 123.705 132.684 123.87 132.501 124.388C132.362 124.779 132.363 124.782 132.572 124.72C133.024 124.584 133.541 124.238 133.748 123.933C134.523 122.786 133.005 121.022 131.09 120.844L130.466 120.786V121.035ZM244.705 122.274C244.6 122.547 244.748 122.712 245.071 122.68C245.606 122.629 245.52 122.138 244.975 122.134C244.857 122.133 244.735 122.196 244.705 122.274ZM248.581 126.561C248.355 126.652 248.075 127.007 248.075 127.203C248.075 127.392 248.652 127.932 248.824 127.903C248.906 127.89 249.153 127.785 249.374 127.67C249.661 127.521 249.776 127.402 249.776 127.255C249.776 126.921 249.676 126.752 249.391 126.605C249.093 126.452 248.882 126.44 248.581 126.561ZM129.748 128.815C129.368 128.986 129.158 129.261 129.305 129.392C129.455 129.526 130.322 129.766 130.656 129.766C131.09 129.766 131.182 129.68 130.934 129.507C130.828 129.433 130.675 129.207 130.594 129.004C130.426 128.585 130.311 128.56 129.748 128.815ZM70.7873 129.443C70.4797 129.609 70.4484 129.766 70.7226 129.766C70.9976 129.766 71.2836 129.596 71.2836 129.433C71.2836 129.259 71.1208 129.263 70.7873 129.443ZM134.099 130.782C134.14 130.908 134.108 130.988 134 131.029C133.871 131.079 133.905 131.137 134.187 131.347C134.719 131.743 135.132 132.4 135.72 133.782C136.356 135.28 136.67 135.754 137.085 135.845C137.248 135.88 137.401 135.89 137.425 135.865C137.45 135.841 137.423 135.534 137.367 135.182C137.291 134.71 137.294 134.246 137.378 133.409L137.492 132.275L137.014 131.836C136.376 131.252 135.448 130.827 134.451 130.662C134.069 130.599 134.044 130.608 134.099 130.782ZM215.23 132.045C215.038 132.318 215.189 132.499 215.608 132.499C215.928 132.499 216.12 132.307 216.12 131.987C216.12 131.742 215.41 131.788 215.23 132.045ZM137.56 137.366C137.558 137.425 137.645 137.758 137.752 138.105C137.96 138.777 138.112 138.905 137.939 138.263C137.816 137.808 137.565 137.214 137.56 137.366ZM112.091 140.799C111.954 140.906 111.842 141.078 111.842 141.181C111.842 141.347 111.897 141.364 112.338 141.339C112.805 141.312 112.833 141.296 112.809 141.075C112.786 140.861 112.564 140.604 112.403 140.604C112.368 140.604 112.228 140.692 112.091 140.799ZM201.277 144.719C200.731 144.909 200.101 145.36 199.965 145.658C199.907 145.785 199.859 146.147 199.859 146.461V147.031L200.544 146.969C200.921 146.934 201.719 146.846 202.317 146.773C202.915 146.7 204.064 146.575 204.87 146.495C205.675 146.415 206.517 146.323 206.74 146.292C206.963 146.261 207.134 146.272 207.119 146.318C207.085 146.425 207.909 147.845 208.219 148.213C208.494 148.537 208.911 148.757 209.444 148.855L209.812 148.923L209.743 148.556C209.642 148.01 209.236 147.331 208.801 146.979C208.091 146.404 207.386 145.975 207.322 146.078C207.283 146.141 206.929 146.02 206.363 145.751C205.162 145.18 204.572 144.949 203.782 144.74C202.975 144.527 201.856 144.517 201.277 144.719ZM125.175 146.147C124.977 146.207 125.193 146.328 126.593 146.936C127.501 147.33 129.521 148.214 131.081 148.899C132.64 149.584 134.193 150.261 134.531 150.405C134.869 150.548 136.121 151.093 137.314 151.617C138.506 152.141 139.494 152.557 139.508 152.543C139.523 152.529 139.228 152.331 138.853 152.103C138.478 151.875 137.15 151.003 135.902 150.165C132.317 147.758 130.626 146.88 128.628 146.39C127.636 146.147 125.634 146.006 125.175 146.147ZM122.578 148.482C122.269 148.557 121.993 148.644 121.963 148.675C121.909 148.734 124.04 148.663 125.834 148.546C126.698 148.49 126.771 148.473 126.401 148.414C125.645 148.293 123.181 148.337 122.578 148.482ZM128.054 148.427C127.959 148.581 127.998 148.594 128.623 148.616C129.442 148.646 129.59 148.628 129.641 148.495C129.702 148.336 128.152 148.27 128.054 148.427ZM119.718 149.646C119.552 149.747 119.368 149.921 119.307 150.034C119.212 150.211 119.254 150.199 119.627 149.943C120.276 149.499 120.347 149.264 119.718 149.646ZM195.794 150.713C195.794 150.739 196.506 151.304 197.377 151.968C198.248 152.632 199.397 153.509 199.93 153.917C200.463 154.326 200.899 154.622 200.899 154.576C200.899 154.53 200.603 154.172 200.241 153.781C199.573 153.058 198.59 152.333 197.086 151.453C196.627 151.185 196.149 150.898 196.023 150.815C195.897 150.733 195.794 150.687 195.794 150.713ZM104.846 151.394C104.748 151.512 104.759 151.536 104.91 151.536C105.011 151.536 105.176 151.598 105.277 151.674C105.683 151.981 106.272 151.745 105.979 151.393C105.821 151.203 105.004 151.204 104.846 151.394ZM109.59 151.637C109.158 151.679 108.468 151.824 108.057 151.961C107.295 152.214 106.143 152.88 106.383 152.929C106.511 152.956 113.837 151.745 113.895 151.688C113.935 151.647 111.441 151.533 110.858 151.548C110.593 151.556 110.022 151.595 109.59 151.637ZM200.993 154.931C200.993 155.136 201.353 155.888 201.6 156.201C201.682 156.304 201.599 156.055 201.415 155.646C201.231 155.238 201.094 154.891 201.109 154.876C201.125 154.86 201.5 155.195 201.943 155.618C202.386 156.042 203.448 157.046 204.303 157.85C205.159 158.653 206.242 159.674 206.711 160.118C207.18 160.562 208.667 161.961 210.015 163.228C218.499 171.197 220.232 172.856 220.232 173.002C220.232 173.12 220.131 173.177 219.855 173.211C219.604 173.242 219.468 173.31 219.448 173.414C219.432 173.501 219.705 173.896 220.068 174.309C221.016 175.389 221.589 176.133 223.216 178.394C225.806 181.992 226.593 182.864 228.248 183.971C229.459 184.781 230.173 185.495 231.066 186.795C231.897 188.003 232.507 188.623 233.668 189.441C234.604 190.1 235.135 190.648 235.452 191.282C235.588 191.554 235.762 191.776 235.837 191.776C235.913 191.776 236.228 192.008 236.538 192.292C237.176 192.877 237.503 193.007 237.757 192.777C237.85 192.693 238.022 192.625 238.138 192.625C238.314 192.625 238.339 192.588 238.285 192.412C238.036 191.59 237.5 190.998 236.162 190.062C234.831 189.132 232.66 186.468 231.294 184.088C229.714 181.336 229.077 180.64 225.621 177.878C223.224 175.963 221.93 174.715 221.193 173.61C220.879 173.141 220.702 172.957 220.586 172.981C220.471 173.005 220.089 172.626 219.318 171.723C216.905 168.897 214.665 166.477 211.964 163.778C208.957 160.773 206.746 158.826 204.16 156.904C202.917 155.98 201.13 154.74 201.041 154.74C201.015 154.74 200.993 154.826 200.993 154.931ZM101.48 155.251C101.123 155.406 100.98 155.682 101.256 155.682C101.451 155.682 101.82 155.373 101.82 155.211C101.82 155.097 101.84 155.095 101.48 155.251ZM145.033 156.02C145.037 156.13 145.06 156.152 145.09 156.077C145.117 156.009 145.114 155.928 145.082 155.896C145.051 155.865 145.029 155.921 145.033 156.02ZM194.527 158.674C195.732 160.991 195.924 161.278 195.472 160.079C195.169 159.277 193.806 156.907 193.648 156.907C193.627 156.907 194.022 157.703 194.527 158.674ZM203.419 158.651C203.871 159.224 204.816 160.198 204.6 159.87C204.288 159.397 203.707 158.728 203.404 158.494L203.121 158.274L203.419 158.651ZM101.171 159.788C100.917 160.109 100.914 160.41 101.163 160.634C101.332 160.786 101.348 160.788 101.294 160.648C101.26 160.56 101.303 160.312 101.39 160.097C101.585 159.609 101.456 159.426 101.171 159.788ZM143.584 160.134C143.167 160.595 143.264 160.974 143.744 160.756C143.993 160.643 144.123 160.358 144.065 160.056C144.014 159.798 143.865 159.822 143.584 160.134ZM185.111 160.818C185.111 161.007 185.158 161.054 185.347 161.054C185.536 161.054 185.583 161.007 185.583 160.818C185.583 160.63 185.536 160.583 185.347 160.583C185.158 160.583 185.111 160.63 185.111 160.818ZM195.077 161.159C194.891 161.426 194.843 161.598 194.866 161.911C194.891 162.262 194.941 162.343 195.226 162.51C195.413 162.619 195.801 162.724 196.117 162.75L196.677 162.797L197.477 164.238C197.917 165.03 198.294 165.661 198.315 165.64C198.386 165.569 197.488 163.79 197.059 163.153C196.824 162.804 196.674 162.505 196.725 162.488C196.839 162.45 196.545 161.342 196.339 161.033C196.225 160.862 196.107 160.818 195.757 160.816C195.356 160.813 195.296 160.844 195.077 161.159ZM101.78 161.108C101.56 161.327 101.596 161.479 101.936 161.764L102.24 162.019L102.321 161.708C102.469 161.138 102.128 160.76 101.78 161.108ZM98.3931 161.156C98.2016 161.267 98.1704 161.525 98.3484 161.525C98.5082 161.525 98.8895 161.256 98.8895 161.143C98.8895 161.027 98.6029 161.034 98.3931 161.156ZM118.386 161.744C118.104 162.051 117.926 162.45 117.722 163.227C117.621 163.613 117.522 163.989 117.502 164.063C117.48 164.148 117.63 164.277 117.903 164.41C118.143 164.526 118.361 164.677 118.387 164.746C118.451 164.91 119.425 164.964 119.698 164.819C119.891 164.716 119.899 164.664 119.841 163.967C119.776 163.189 119.875 162.767 120.197 162.445C120.343 162.3 120.316 162.29 119.808 162.308L119.263 162.326L119.177 161.94C119.102 161.605 119.056 161.552 118.833 161.546C118.681 161.541 118.497 161.623 118.386 161.744ZM128.386 162.24C130.574 162.602 130.977 162.615 130.138 162.294C129.32 161.981 128.78 161.901 127.546 161.911L126.448 161.92L128.386 162.24ZM168.16 162.527C168.072 162.614 168.269 162.939 168.408 162.939C168.474 162.939 168.578 162.889 168.638 162.829C168.722 162.745 168.71 162.69 168.586 162.596C168.408 162.461 168.251 162.436 168.16 162.527ZM140.771 163.054C140.589 163.168 140.409 163.305 140.371 163.359C140.226 163.563 140.301 165.027 140.5 165.885C140.611 166.364 140.756 167.01 140.822 167.321C140.888 167.632 140.947 167.802 140.953 167.698C140.959 167.594 141.026 166.661 141.101 165.625C141.258 163.476 141.274 162.844 141.173 162.846C141.134 162.847 140.953 162.941 140.771 163.054ZM191.107 163.144C191.131 163.231 191.179 163.454 191.213 163.639C191.269 163.935 191.254 163.975 191.084 163.975C190.978 163.975 190.799 164.092 190.686 164.235C190.38 164.621 190.447 165.592 190.817 166.124C191.091 166.518 191.369 166.7 191.427 166.525C191.445 166.47 191.513 166.426 191.577 166.426C191.785 166.426 192.012 165.786 192.005 165.221C191.995 164.491 191.816 164.02 191.553 164.03C191.397 164.036 191.349 163.981 191.346 163.794C191.344 163.661 191.279 163.424 191.203 163.269C191.126 163.113 191.083 163.057 191.107 163.144ZM149.059 164.227C148.933 164.352 149.003 164.443 149.406 164.678C149.874 164.952 150.087 164.979 150.165 164.776C150.195 164.699 150.176 164.635 150.123 164.635C150.069 164.635 149.869 164.529 149.678 164.399C149.322 164.158 149.17 164.116 149.059 164.227ZM104.803 165.098C104.774 165.146 104.798 165.201 104.857 165.22C104.917 165.24 105.034 165.441 105.118 165.668C105.301 166.161 105.508 166.279 105.507 165.892C105.506 165.383 104.988 164.8 104.803 165.098ZM157.741 165.173C157.585 165.195 157.308 165.251 157.126 165.298C156.811 165.379 156.796 165.402 156.806 165.782C156.819 166.258 156.967 166.382 157.678 166.517C158.345 166.643 159.017 166.495 159.401 166.138C159.566 165.984 159.68 165.792 159.663 165.698C159.601 165.361 158.521 165.067 157.741 165.173ZM118.752 165.396C118.747 165.53 118.829 166.116 118.935 166.7C119.097 167.599 119.228 168.021 119.659 169.042C119.692 169.12 119.658 169.141 119.557 169.102C119.428 169.053 119.405 169.126 119.405 169.579C119.405 170.618 119.632 170.687 121.002 170.066C121.502 169.839 122.112 169.624 122.359 169.589C122.657 169.546 122.808 169.478 122.808 169.388C122.808 169.314 122.872 169.253 122.95 169.253C123.049 169.253 123.092 169.153 123.092 168.923C123.092 168.653 123.127 168.593 123.287 168.593C123.395 168.593 123.569 168.547 123.675 168.491C123.864 168.39 123.862 168.382 123.604 168.114L123.34 167.839L123.604 167.564C123.884 167.274 123.871 167.072 123.579 167.149C123.482 167.174 123.326 167.117 123.232 167.023C123.09 166.881 123.052 166.875 123.014 166.988C122.989 167.063 122.777 167.328 122.542 167.578C122.067 168.084 121.231 168.529 120.436 168.697C120.155 168.757 119.895 168.852 119.859 168.909C119.823 168.965 119.776 168.992 119.755 168.967C119.734 168.943 119.501 168.075 119.238 167.038C118.976 166.002 118.757 165.263 118.752 165.396ZM184.109 165.52C184.012 165.771 184.261 166.41 184.548 166.651C184.824 166.882 185.36 167.084 185.703 167.085C185.837 167.085 185.859 167.034 185.81 166.826C185.675 166.248 185.397 165.765 185.093 165.58C184.73 165.36 184.183 165.327 184.109 165.52ZM215.836 165.854C215.836 166.198 216.017 166.511 216.3 166.657C216.641 166.832 217.254 166.847 217.467 166.685C217.605 166.58 217.607 166.533 217.489 166.257C217.328 165.885 216.881 165.672 216.265 165.672C215.904 165.672 215.836 165.701 215.836 165.854ZM123.622 166.028C123.547 166.173 123.459 166.459 123.427 166.665L123.367 167.038L123.509 166.731C123.668 166.386 123.853 165.766 123.796 165.766C123.775 165.766 123.697 165.884 123.622 166.028ZM105.507 167.08C105.507 167.486 105.649 167.666 105.741 167.377C105.81 167.159 105.71 166.708 105.592 166.708C105.545 166.708 105.507 166.875 105.507 167.08ZM176.888 168.139C176.6 169.347 176.427 170.388 176.531 170.29C176.607 170.218 177.283 166.979 177.232 166.928C177.208 166.904 177.053 167.449 176.888 168.139ZM199.016 167.085C199.153 167.374 199.197 167.427 199.197 167.308C199.197 167.257 199.131 167.133 199.05 167.033C198.911 166.86 198.909 166.863 199.016 167.085ZM199.292 167.651C199.347 167.754 199.414 167.839 199.44 167.839C199.466 167.839 199.442 167.754 199.386 167.651C199.33 167.547 199.264 167.462 199.238 167.462C199.212 167.462 199.236 167.547 199.292 167.651ZM105.413 168.352C105.413 168.798 106.105 169.025 106.641 168.754C106.77 168.689 106.89 168.567 106.906 168.482C106.929 168.365 106.86 168.329 106.611 168.329C106.433 168.329 106.199 168.283 106.092 168.226C105.985 168.169 105.789 168.122 105.655 168.122C105.461 168.122 105.413 168.168 105.413 168.352ZM199.633 168.269C199.602 168.35 199.643 168.544 199.723 168.7C199.804 168.855 199.951 169.407 200.051 169.926C200.305 171.255 200.614 171.703 201.275 171.703C201.53 171.703 201.594 171.649 201.752 171.303C201.853 171.082 201.936 170.772 201.937 170.613C201.942 169.81 201.201 168.707 200.394 168.318C199.909 168.084 199.71 168.071 199.633 168.269ZM140.694 168.57C140.593 168.712 140.444 169.02 140.363 169.253C140.283 169.486 139.723 170.642 139.118 171.821C138.513 173 138.039 173.965 138.064 173.965C138.089 173.965 138.309 173.651 138.552 173.268C138.883 172.747 139.086 172.53 139.352 172.41C140.178 172.039 141.212 171.182 141.499 170.631C141.729 170.188 141.803 169.751 141.707 169.403C141.611 169.058 141.104 168.31 140.966 168.31C140.918 168.31 140.795 168.427 140.694 168.57ZM144.596 168.411C144.514 168.543 144.827 168.775 145.091 168.779C145.352 168.782 145.454 168.626 145.306 168.448C145.173 168.289 144.688 168.263 144.596 168.411ZM147.166 168.973C146.863 169.063 146.256 169.452 146.255 169.557C146.254 169.633 146.432 169.572 147.223 169.221C147.522 169.089 147.767 168.957 147.767 168.928C147.767 168.856 147.489 168.876 147.166 168.973ZM154.33 169.135C154.326 169.278 154.267 169.588 154.197 169.824C154.078 170.233 154.083 170.267 154.299 170.516C154.424 170.661 154.642 170.838 154.783 170.912C155.017 171.033 155.048 171.028 155.139 170.859C155.194 170.757 155.295 170.695 155.363 170.721C155.441 170.751 155.542 170.631 155.634 170.397C155.767 170.059 155.767 170.011 155.63 169.875C155.548 169.793 155.479 169.613 155.476 169.476C155.473 169.258 155.406 169.204 154.952 169.054C154.296 168.836 154.339 168.831 154.33 169.135ZM192.114 169.069C192.098 169.175 192.501 170.928 192.688 171.562C192.959 172.486 193.465 173.407 193.979 173.912C194.365 174.291 194.565 174.425 194.565 174.304C194.565 174.283 194.071 173.212 193.469 171.924C192.866 170.636 192.317 169.455 192.247 169.3C192.178 169.144 192.118 169.04 192.114 169.069ZM158.761 171.091C158.761 171.35 158.78 171.445 158.802 171.301C158.823 171.158 158.823 170.946 158.8 170.83C158.778 170.714 158.76 170.831 158.761 171.091ZM155.236 170.844C155.236 170.891 155.323 171.028 155.429 171.151L155.623 171.373L155.474 171.067C155.328 170.766 155.236 170.68 155.236 170.844ZM175.767 171.475C175.55 171.661 175.267 171.991 175.139 172.209C174.88 172.649 174.313 173.977 174.363 174.027C174.397 174.06 176.318 171.269 176.318 171.186C176.318 171.066 176.133 171.163 175.767 171.475ZM176.552 171.468C176.683 171.875 177.11 172.924 177.136 172.899C177.196 172.839 176.783 171.635 176.643 171.464C176.493 171.281 176.492 171.281 176.552 171.468ZM158.658 171.844C158.659 172 158.681 172.052 158.705 171.96C158.729 171.869 158.727 171.742 158.701 171.678C158.675 171.614 158.656 171.689 158.658 171.844ZM166.794 172.386C166.731 172.529 166.703 172.763 166.732 172.907C166.781 173.147 166.708 173.227 165.832 173.898C165.221 174.366 164.879 174.691 164.879 174.805C164.879 174.902 164.985 175.167 165.114 175.392C165.262 175.651 165.35 175.951 165.35 176.203L165.352 176.604H166.294C167.233 176.604 167.238 176.605 167.375 176.87C167.451 177.016 167.58 177.191 167.662 177.258C167.786 177.361 167.81 177.356 167.81 177.228C167.81 177.144 167.852 177.075 167.904 177.075C167.958 177.075 167.999 176.784 167.999 176.392C167.999 175.529 168.192 175.107 168.66 174.948C168.842 174.886 168.981 174.788 168.968 174.73C168.955 174.672 169.008 174.625 169.086 174.625C169.164 174.625 169.228 174.548 169.228 174.454C169.228 174.361 169.334 174.141 169.464 173.965C169.594 173.789 169.7 173.55 169.7 173.432C169.7 173.223 169.693 173.222 169.31 173.356C168.795 173.538 168.084 173.53 167.468 173.337L166.967 173.179L166.938 172.653C166.91 172.153 166.903 172.14 166.794 172.386ZM134.707 172.639C134.444 172.853 134.528 172.989 134.978 173.079C135.225 173.128 135.318 173.093 135.519 172.878C135.652 172.735 135.76 172.582 135.76 172.538C135.76 172.374 134.934 172.454 134.707 172.639ZM158.654 173.682C158.648 175.073 159.07 187.242 159.127 187.299C159.218 187.39 159.755 185.185 159.862 184.284C160.158 181.785 159.863 178.596 158.926 174.153L158.658 172.881L158.654 173.682ZM76.4761 173.486C76.2773 173.685 76.1997 173.853 76.1997 174.088C76.1997 174.502 76.4038 174.671 76.8922 174.658C77.5332 174.641 77.9814 173.963 77.7495 173.36C77.7078 173.252 77.5636 173.211 77.2223 173.211C76.829 173.211 76.7074 173.256 76.4761 173.486ZM177.37 173.682C177.368 173.76 177.469 174.014 177.595 174.248C177.72 174.481 177.822 174.629 177.821 174.577C177.818 174.416 177.374 173.533 177.37 173.682ZM172.3 173.826C172.092 173.895 171.81 173.954 171.673 173.958C171.507 173.963 171.344 174.071 171.179 174.286C170.535 175.127 170.213 176.178 170.633 176.069C170.739 176.041 170.832 176.083 170.867 176.175C170.916 176.3 171.066 176.232 171.708 175.791C172.945 174.941 173.577 174.261 173.577 173.779C173.577 173.645 172.761 173.675 172.3 173.826ZM137.578 174.596C137.052 175.333 136.508 176.485 136.52 176.832C136.522 176.888 136.817 176.362 137.176 175.663C137.821 174.408 137.944 174.081 137.578 174.596ZM132.041 174.797C131.865 174.99 131.836 175.243 131.979 175.331C132.085 175.397 132.538 174.924 132.543 174.742C132.547 174.565 132.219 174.601 132.041 174.797ZM127.747 175.322C127.801 175.801 128.03 176.132 128.306 176.132C128.692 176.132 128.454 175.326 127.986 175.051L127.697 174.88L127.747 175.322ZM169.172 175.069C169.067 175.234 169.171 175.899 169.328 176.073C169.41 176.165 169.548 175.402 169.497 175.138C169.452 174.907 169.295 174.874 169.172 175.069ZM109.383 176.368C109.383 176.557 109.431 176.604 109.62 176.604C109.809 176.604 109.856 176.557 109.856 176.368C109.856 176.18 109.809 176.132 109.62 176.132C109.431 176.132 109.383 176.18 109.383 176.368ZM170.573 177.086C170.509 177.429 170.462 177.916 170.468 178.169C170.477 178.528 170.508 178.421 170.61 177.687C170.764 176.58 170.74 176.189 170.573 177.086ZM161.11 176.889C160.911 177.07 160.816 177.229 160.852 177.321C160.883 177.401 160.908 177.506 160.908 177.554C160.908 177.713 161.284 177.643 161.481 177.446C161.613 177.315 161.666 177.158 161.646 176.959C161.607 176.564 161.484 176.548 161.11 176.889ZM146.254 177.075C146.254 177.342 146.275 177.358 146.632 177.358C146.945 177.358 147.011 177.326 147.011 177.172C147.011 176.968 146.751 176.792 146.45 176.792C146.296 176.792 146.254 176.852 146.254 177.075ZM130.655 177.536C130.655 177.842 130.708 178.057 130.808 178.157C131.047 178.394 131.265 178.296 131.3 177.937C131.331 177.616 131.16 177.337 130.822 177.157C130.673 177.078 130.655 177.119 130.655 177.536ZM124.794 178.969C122.399 180.178 122.075 180.4 123.706 179.714C124.946 179.192 127.609 177.736 127.299 177.748C127.247 177.75 126.12 178.3 124.794 178.969ZM135.76 178.279C135.76 178.733 135.982 179.054 136.296 179.054C136.512 179.054 136.53 179.027 136.472 178.795C136.399 178.501 135.986 177.923 135.85 177.923C135.801 177.923 135.76 178.083 135.76 178.279ZM167.919 178.677C167.919 178.807 167.941 178.86 167.967 178.795C167.993 178.73 167.993 178.624 167.967 178.559C167.941 178.494 167.919 178.547 167.919 178.677ZM138.975 178.897C138.975 179.164 139.192 179.672 139.374 179.831C139.655 180.077 139.999 180.046 140.069 179.767C140.188 179.294 139.92 178.994 139.235 178.83C139.047 178.785 138.975 178.804 138.975 178.897ZM168.021 179.431C168.021 179.612 168.04 179.687 168.064 179.596C168.088 179.505 168.088 179.357 168.064 179.266C168.04 179.175 168.021 179.249 168.021 179.431ZM170.34 179.337C170.233 179.699 170.248 179.959 170.369 179.839C170.425 179.783 170.457 179.594 170.44 179.419C170.411 179.12 170.405 179.115 170.34 179.337ZM171.119 179.666C171.183 179.744 171.279 179.808 171.331 179.808C171.384 179.808 171.373 179.745 171.308 179.666C171.243 179.589 171.147 179.525 171.095 179.525C171.043 179.525 171.053 179.588 171.119 179.666ZM168.117 180.138C168.118 180.345 168.137 180.419 168.16 180.301C168.183 180.184 168.182 180.015 168.158 179.924C168.135 179.834 168.116 179.93 168.117 180.138ZM135.349 181.147C135.318 181.473 135.272 182.079 135.246 182.494L135.198 183.248L135.333 182.635C135.462 182.051 135.539 180.687 135.448 180.596C135.424 180.572 135.38 180.82 135.349 181.147ZM168.195 180.899C168.2 181.009 168.222 181.032 168.252 180.956C168.28 180.888 168.276 180.807 168.245 180.776C168.213 180.744 168.191 180.8 168.195 180.899ZM170.234 181.852C170.157 181.929 170.155 182.291 170.23 182.486C170.336 182.759 170.457 182.64 170.457 182.264C170.457 181.906 170.36 181.727 170.234 181.852ZM168.419 183.625C168.452 183.987 168.562 185.238 168.664 186.405C168.837 188.364 169.274 191.478 169.392 191.588C169.42 191.614 169.416 191.423 169.383 191.164C169.35 190.905 169.262 190.12 169.187 189.42C168.864 186.412 168.459 183.062 168.412 183.015C168.384 182.988 168.387 183.262 168.419 183.625ZM198.013 185.748C197.887 185.951 198.078 186.599 198.307 186.749C198.671 186.986 198.802 186.868 198.726 186.371C198.691 186.136 198.606 185.878 198.539 185.797C198.401 185.63 198.103 185.603 198.013 185.748ZM138.311 185.863C138.31 185.928 138.247 186.699 138.172 187.578C138.097 188.456 138.049 189.189 138.066 189.206C138.083 189.223 138.15 188.991 138.214 188.692C138.342 188.096 138.469 185.745 138.373 185.745C138.34 185.745 138.312 185.798 138.311 185.863ZM137.898 190.144C137.68 191.21 137.541 193.52 137.705 193.356C137.763 193.298 138.031 189.959 137.982 189.908C137.966 189.892 137.928 189.998 137.898 190.144ZM132.38 192.011C132.009 192.379 131.968 192.719 132.295 192.719C132.594 192.719 132.83 192.438 132.83 192.081C132.83 191.673 132.736 191.659 132.38 192.011ZM169.417 191.82C169.417 191.9 169.371 191.965 169.316 191.965C169.18 191.965 168.489 193.473 168.374 194.022C168.267 194.533 168.368 195.014 168.592 195.057C168.822 195.101 169.589 194.348 169.865 193.806C170.18 193.189 170.214 192.365 169.937 192.059C169.659 191.753 169.417 191.642 169.417 191.82ZM157.4 193.591C156.001 195.23 155.967 195.277 156.465 194.843C157.1 194.289 157.934 193.323 158.399 192.601C158.737 192.078 158.441 192.371 157.4 193.591ZM239.66 194.651C239.783 194.78 239.904 194.886 239.93 194.886C239.956 194.886 239.877 194.78 239.755 194.651C239.633 194.521 239.512 194.415 239.486 194.415C239.46 194.415 239.538 194.521 239.66 194.651ZM155.207 195.084C154.347 195.536 153.781 196.43 153.981 197.019C154.061 197.256 154.113 197.286 154.394 197.259C155.109 197.193 155.816 196.675 156.153 195.97C156.283 195.698 156.276 195.658 156.03 195.284C155.887 195.065 155.724 194.888 155.668 194.89C155.612 194.893 155.405 194.98 155.207 195.084ZM201.699 195.301C201.615 195.858 201.708 196.131 201.971 196.093C202.133 196.07 202.181 195.99 202.205 195.704C202.234 195.351 202.031 194.886 201.848 194.886C201.8 194.886 201.733 195.073 201.699 195.301ZM240.431 195.562C240.709 195.882 241.341 196.619 241.835 197.2C242.329 197.781 243.073 198.654 243.489 199.14C243.905 199.625 245.497 201.486 247.027 203.274C252.482 209.647 252.476 209.64 250.812 207.467C248.929 205.01 246.4 202.054 242.002 197.172C240.917 195.967 240.005 194.981 239.977 194.981C239.949 194.981 240.153 195.242 240.431 195.562ZM136.208 196.653C136.184 196.848 136.107 197.144 136.036 197.312C135.787 197.908 136.367 197.982 136.649 197.39C136.841 196.987 136.842 196.637 136.652 196.448C136.406 196.203 136.256 196.273 136.208 196.653ZM47.1994 196.596C47.0558 196.74 47.0481 197.167 47.1808 197.643C47.2935 198.047 47.4862 198.094 48.0624 197.854C48.3888 197.718 48.4048 197.69 48.4048 197.256C48.4048 196.867 48.3719 196.786 48.1769 196.698C47.7756 196.516 47.326 196.469 47.1994 196.596ZM129.64 197.78C129.368 197.832 129.142 198.154 129.142 198.488C129.142 198.945 129.808 198.757 130.061 198.228C130.202 197.935 130.205 197.879 130.084 197.804C130.008 197.756 129.925 197.722 129.899 197.728C129.873 197.734 129.756 197.758 129.64 197.78ZM167.999 198.515C167.999 198.703 168.046 198.75 168.235 198.75C168.424 198.75 168.471 198.703 168.471 198.515C168.471 198.326 168.424 198.279 168.235 198.279C168.046 198.279 167.999 198.326 167.999 198.515ZM139.366 199.834C139.365 199.886 139.447 200.31 139.547 200.776L139.73 201.625L139.68 200.979C139.652 200.624 139.571 200.2 139.499 200.036C139.427 199.873 139.367 199.782 139.366 199.834ZM144.697 200.253C144.618 200.406 144.553 200.644 144.553 200.782C144.553 201.008 144.578 201.026 144.813 200.968C144.956 200.933 145.112 200.866 145.159 200.82C145.294 200.688 145.261 200.157 145.112 200.063C144.904 199.931 144.852 199.955 144.697 200.253ZM127.632 201.367C127.459 201.612 127.389 201.753 127.478 201.68C127.69 201.505 128.04 201.012 127.988 200.961C127.966 200.939 127.806 201.121 127.632 201.367ZM95.2467 202.158C94.7078 202.713 94.7023 202.723 95.1241 202.388C95.4885 202.099 95.949 201.577 95.8398 201.577C95.8239 201.577 95.557 201.839 95.2467 202.158ZM139.84 202.52C139.84 202.649 139.862 202.702 139.888 202.638C139.914 202.573 139.914 202.467 139.888 202.402C139.862 202.337 139.84 202.39 139.84 202.52ZM133.265 203.673C133.231 203.84 133.105 204.127 132.985 204.309C132.759 204.652 132.546 205.186 132.546 205.408C132.546 205.483 132.649 205.536 132.798 205.536C132.937 205.536 133.124 205.602 133.214 205.682C133.363 205.817 133.392 205.807 133.563 205.564C133.835 205.18 134.118 204.598 134.229 204.193C134.323 203.852 134.319 203.841 134.109 203.894C133.956 203.932 133.832 203.885 133.691 203.735C133.581 203.617 133.491 203.487 133.491 203.444C133.491 203.233 133.318 203.407 133.265 203.673ZM190.688 204.835C190.688 205.822 190.848 206.097 191.421 206.1C191.723 206.101 191.728 206.093 191.728 205.674C191.728 205.102 191.533 204.67 191.139 204.37C190.959 204.233 190.784 204.122 190.75 204.122C190.716 204.122 190.688 204.443 190.688 204.835ZM123.695 206.804C122.354 208.227 121.242 209.378 121.225 209.36C121.208 209.343 121.3 209.046 121.431 208.701C121.561 208.355 121.622 208.1 121.567 208.135C121.397 208.239 121.111 208.955 121.109 209.28C121.107 209.524 121.152 209.596 121.334 209.641C121.57 209.7 123.613 209.244 123.828 209.084C124.048 208.921 124.582 207.866 125.072 206.626C125.338 205.957 125.698 205.14 125.872 204.812C126.047 204.484 126.177 204.216 126.162 204.216C126.147 204.216 125.037 205.381 123.695 206.804ZM140.11 204.617C140.111 204.999 140.296 205.504 140.502 205.686L140.704 205.865L140.649 205.314C140.598 204.804 140.396 204.405 140.189 204.405C140.145 204.405 140.109 204.5 140.11 204.617ZM132.511 206.313L132.341 206.619L132.536 206.384C132.709 206.175 132.785 206.007 132.708 206.007C132.693 206.007 132.605 206.145 132.511 206.313ZM131.712 206.571C131.374 206.878 131.128 207.374 131.128 207.747C131.128 207.976 131.151 207.986 131.695 207.986C132.136 207.986 132.304 207.944 132.451 207.797C132.67 207.58 132.701 207.117 132.509 206.958C132.436 206.898 132.325 206.723 132.261 206.569C132.197 206.415 132.117 206.289 132.083 206.289C132.049 206.289 131.882 206.416 131.712 206.571ZM252.149 208.953C252.103 209.073 251.993 209.231 251.906 209.303C251.461 209.672 252.316 211.269 253.48 212.24L253.942 212.626L254.118 212.424C254.323 212.187 254.445 211.514 254.352 211.129C254.164 210.352 253.282 209.275 252.505 208.875C252.245 208.74 252.228 208.744 252.149 208.953ZM56.9821 210.224C56.4781 210.568 55.4956 211.391 55.779 211.232C55.9555 211.133 57.4952 210.06 57.6178 209.951C57.868 209.728 57.4388 209.912 56.9821 210.224ZM141.739 210.178C141.489 210.437 141.175 211.001 141.282 211.001C141.347 211.001 142.111 209.95 142.073 209.912C142.052 209.891 141.902 210.011 141.739 210.178ZM122.204 210.868C122.097 211.146 122.154 211.707 122.32 212.018L122.486 212.328L122.611 211.626C122.68 211.241 122.707 210.878 122.672 210.822C122.576 210.667 122.269 210.698 122.204 210.868ZM254.74 213.829C254.82 213.984 254.908 214.111 254.934 214.111C254.96 214.111 254.915 213.984 254.834 213.829C254.754 213.673 254.666 213.546 254.64 213.546C254.614 213.546 254.659 213.673 254.74 213.829ZM255.27 214.748C255.911 215.875 258.019 219.346 258.118 219.436C258.225 219.534 258.191 219.474 257.271 217.928C256.962 217.41 256.339 216.36 255.886 215.596C255.433 214.831 255.039 214.206 255.012 214.206C254.985 214.206 255.101 214.45 255.27 214.748ZM122.702 215.878C122.584 216.028 122.587 216.031 122.737 215.914C122.828 215.843 122.903 215.769 122.903 215.749C122.903 215.672 122.825 215.721 122.702 215.878ZM122.083 216.953C121.598 217.889 121.522 218.091 121.768 217.787C122.029 217.465 122.565 216.382 122.497 216.315C122.467 216.284 122.281 216.571 122.083 216.953ZM73.3719 216.899C73.2125 217.033 72.9866 217.276 72.8697 217.441C72.7057 217.672 72.7915 217.622 73.2468 217.224C73.5709 216.94 73.8362 216.696 73.8362 216.682C73.8362 216.59 73.6195 216.691 73.3719 216.899ZM166.013 218.623C166.013 219.127 165.821 220.006 165.352 221.651C164.919 223.168 164.768 224.578 164.962 225.288C165.088 225.748 165.599 226.483 165.758 226.435C165.944 226.378 166.544 224.427 166.782 223.111C166.958 222.136 167.001 221.579 166.993 220.378C166.988 219.549 166.943 218.743 166.894 218.588C166.816 218.341 166.755 218.301 166.409 218.276L166.013 218.247V218.623ZM128.395 222.082C128.049 222.372 127.868 222.933 128.004 223.291C128.056 223.425 128.132 223.535 128.174 223.535C128.349 223.535 128.953 222.465 128.953 222.156C128.953 221.767 128.795 221.746 128.395 222.082ZM150.477 229.912C150.379 230.01 150.403 230.491 150.509 230.557C150.625 230.628 150.887 230.384 150.887 230.205C150.887 229.972 150.614 229.776 150.477 229.912ZM144.08 232.247C144.08 232.792 144.224 232.865 144.544 232.482C144.795 232.183 144.798 232.167 144.631 232.001C144.536 231.906 144.373 231.829 144.269 231.829C144.108 231.829 144.08 231.891 144.08 232.247ZM266.166 233.808C266.189 233.885 266.463 234.585 266.774 235.363C267.086 236.14 267.586 237.391 267.885 238.143C268.764 240.353 269.497 242.026 270.209 243.451C270.892 244.817 272.279 247.219 272.346 247.153C272.366 247.133 271.375 244.938 270.144 242.276C268.912 239.614 267.83 237.266 267.738 237.059C267.203 235.845 266.087 233.538 266.166 233.808ZM222.473 238.45C222.498 238.88 222.529 238.948 222.714 238.974C222.871 238.996 222.927 238.957 222.927 238.823C222.927 238.525 222.734 238.067 222.584 238.01C222.47 237.966 222.449 238.046 222.473 238.45ZM127.36 239.533C127.257 239.773 127.259 239.779 127.392 239.609C127.471 239.508 127.535 239.392 127.535 239.35C127.535 239.207 127.471 239.274 127.36 239.533ZM126.357 241.461C125.913 242.366 125.552 243.146 125.555 243.193C125.558 243.24 125.943 242.522 126.411 241.596C126.88 240.67 127.241 239.891 127.214 239.864C127.187 239.838 126.802 240.556 126.357 241.461ZM132.936 244.704C132.823 244.998 132.747 245.254 132.766 245.273C132.786 245.293 132.894 245.069 133.007 244.775C133.12 244.481 133.196 244.225 133.176 244.206C133.157 244.186 133.049 244.411 132.936 244.704ZM132.56 245.658C132.456 245.899 132.459 245.904 132.592 245.735C132.671 245.634 132.735 245.517 132.735 245.476C132.735 245.332 132.671 245.399 132.56 245.658ZM69.5102 250.298C69.27 250.682 69.4371 251.102 69.7327 250.858C69.8885 250.729 69.8813 250.193 69.7229 250.142C69.6706 250.125 69.5748 250.195 69.5102 250.298ZM75.6573 251.851C74.7857 252.705 74.1057 253.404 74.1462 253.406C74.1867 253.408 74.9312 252.71 75.8007 251.855C76.6701 251 77.3501 250.3 77.3118 250.3C77.2735 250.3 76.529 250.998 75.6573 251.851ZM33.105 252.915C32.975 253.166 32.889 253.742 32.9556 253.915C32.9993 254.029 33.1367 254.069 33.4775 254.069H33.9401V253.598C33.9401 253.253 33.8897 253.077 33.751 252.939C33.5178 252.706 33.2188 252.695 33.105 252.915ZM72.898 254.031C72.5393 254.332 72.1628 255.038 72.0775 255.569L72.0157 255.954H72.4627C72.8423 255.954 72.9567 255.907 73.2217 255.643C73.3933 255.472 73.5847 255.162 73.6471 254.955C73.7523 254.605 73.7421 254.55 73.5094 254.208C73.3712 254.005 73.2447 253.825 73.2281 253.809C73.2117 253.792 73.0632 253.892 72.898 254.031ZM51.5629 260.219L51.3828 260.431L51.5955 260.251C51.7954 260.082 51.8513 260.007 51.7756 260.007C51.7577 260.007 51.662 260.102 51.5629 260.219ZM48.862 262.483C48.2111 263.116 47.542 263.836 47.3752 264.083C46.9876 264.655 46.7078 265.269 46.7051 265.554C46.7032 265.766 46.724 265.774 47.1521 265.711C47.7179 265.627 48.097 265.396 48.6207 264.816C49.1987 264.175 50.5914 262.004 50.4718 261.931C50.4185 261.898 50.3007 261.749 50.2101 261.601L50.0454 261.331L48.862 262.483ZM64.241 264.544C64.2077 264.629 64.1939 264.862 64.2104 265.062C64.2366 265.38 64.2732 265.429 64.5003 265.455C64.733 265.482 64.7603 265.455 64.7603 265.201C64.7603 264.842 64.3349 264.303 64.241 264.544ZM75.7399 269.791C75.7328 269.86 75.5569 270.085 75.3489 270.29C75.0526 270.582 74.9707 270.734 74.9707 270.989C74.9707 271.402 75.1524 271.416 75.4785 271.03C75.7352 270.726 75.8652 270.258 75.7954 269.891C75.7719 269.767 75.747 269.723 75.7399 269.791ZM114.926 271.743C114.835 271.98 114.861 272.041 114.973 271.85C115.028 271.756 115.053 271.658 115.029 271.634C115.005 271.61 114.958 271.659 114.926 271.743ZM114.548 272.78C114.456 273.017 114.483 273.078 114.595 272.887C114.65 272.792 114.675 272.695 114.651 272.671C114.627 272.647 114.58 272.696 114.548 272.78Z" fill="black"/>
</svg>
