<svg id="Layer_1" data-name="Layer 1" xmlns="http://www.w3.org/2000/svg" viewBox="0 0 1080 1080"><defs><style>.cls-1{fill:#231f20;}.cls-2{fill:#fff;}</style></defs><title>Baneo Logo</title><rect class="cls-1" width="1080" height="1080"/><path class="cls-2" d="M834.35,613.14c-22.75,31.62-67.6,42.75-102.71,42.75C664,655.89,612,614.89,612,523.52c0-35.72,7.79-111.87,65-111.87,37.06,0,53.3,25.77,53.3,50.38,0,16.4-9.1,29.86-22.75,35.72,2,33.39,28.61,49.2,57.86,49.2,35.11,0,61.12-21.08,61.12-53.88,0-67.36-98.82-82.58-149.53-82.58-113.77,0-187.24,67.94-187.24,164,0,97.23,79.31,153.45,167.73,153.45,90.37,0,148.87-52.72,177.48-114.21ZM600.87,583.63q-29.31,14.26-45.62,40.25l-1.85,3-1.86-3q-16.31-26-45.64-40.25l-3.25-1.69,3.25-1.67q29.34-13.83,45.64-39.84l1.86-2.93,1.85,2.93q16.31,26,45.62,39.84l3.26,1.67Z"/><path class="cls-2" d="M491.62,438.55c-41,0-74.69,25.24-101.12,62.5l1.77-197.69L223,339.21v.37c55.08-11.73,58,3.2,58,42.69v346.2l58.89-19.83C368.48,720.43,398.81,729,429.75,729c105.89,0,178.47-65.39,178.47-156.49C608.22,492.14,562.42,438.55,491.62,438.55ZM428.86,726.86c-36,0-38.36-28.72-38.36-55.85V502.64c15.14-20.63,27.92-36.4,47.81-36.4,46.64,0,47.24,87.23,47.24,106.38C485.55,684.31,468.42,726.86,428.86,726.86ZM555,624l-1.86,2.94L551.25,624q-16.31-26-45.64-40.25l-3.26-1.69,3.26-1.67q29.34-13.83,45.64-39.85l1.85-2.92,1.86,2.92q16.31,26,45.62,39.85l3.26,1.67-3.26,1.69Q571.27,598,555,624Z"/></svg>